{"asset":{"version":"2.0","generator":"Blockbench 4.12.1 glTF exporter"},"scenes":[{"nodes":[6],"name":"blockbench_export"}],"scene":0,"nodes":[{"rotation":[-0.7071067811865499,4.329780281177513e-17,1.5700924586837784e-16,0.7071067811865452],"translation":[0,0,-0.03125],"name":"barrel","mesh":0},{"translation":[0,-0.08124999999999996,0.10156250000000003],"name":"grip","mesh":1},{"rotation":[-0.7071067811865482,4.331553902130558e-17,1.570092458683776e-16,0.7071067811865468],"translation":[0,0,0.1],"name":"reciever","mesh":2},{"rotation":[-0.7071067811865482,4.331553902130558e-17,1.570092458683776e-16,0.7071067811865468],"translation":[-8.307070104843698e-17,0.07405660377358461,0.13856132075471694],"name":"magazine","mesh":3},{"name":"stock","mesh":4},{"name":"optics_rail","mesh":5},{"children":[0,1,2,3,4,5]}],"bufferViews":[{"buffer":0,"byteOffset":0,"byteLength":720,"target":34962,"byteStride":12},{"buffer":0,"byteOffset":720,"byteLength":720,"target":34962,"byteStride":12},{"buffer":0,"byteOffset":1440,"byteLength":480,"target":34962,"byteStride":8},{"buffer":0,"byteOffset":1920,"byteLength":144,"target":34963},{"buffer":0,"byteOffset":2064,"byteLength":480,"target":34962,"byteStride":12},{"buffer":0,"byteOffset":2544,"byteLength":480,"target":34962,"byteStride":12},{"buffer":0,"byteOffset":3024,"byteLength":320,"target":34962,"byteStride":8},{"buffer":0,"byteOffset":3344,"byteLength":120,"target":34963},{"buffer":0,"byteOffset":3464,"byteLength":7008,"target":34962,"byteStride":12},{"buffer":0,"byteOffset":10472,"byteLength":7008,"target":34962,"byteStride":12},{"buffer":0,"byteOffset":17480,"byteLength":4672,"target":34962,"byteStride":8},{"buffer":0,"byteOffset":22152,"byteLength":1680,"target":34963},{"buffer":0,"byteOffset":23832,"byteLength":2460,"target":34962,"byteStride":12},{"buffer":0,"byteOffset":26292,"byteLength":2460,"target":34962,"byteStride":12},{"buffer":0,"byteOffset":28752,"byteLength":1640,"target":34962,"byteStride":8},{"buffer":0,"byteOffset":30392,"byteLength":596,"target":34963},{"buffer":0,"byteOffset":30988,"byteLength":2208,"target":34962,"byteStride":12},{"buffer":0,"byteOffset":33196,"byteLength":2208,"target":34962,"byteStride":12},{"buffer":0,"byteOffset":35404,"byteLength":1472,"target":34962,"byteStride":8},{"buffer":0,"byteOffset":36876,"byteLength":552,"target":34963},{"buffer":0,"byteOffset":37428,"byteLength":2304,"target":34962,"byteStride":12},{"buffer":0,"byteOffset":39732,"byteLength":2304,"target":34962,"byteStride":12},{"buffer":0,"byteOffset":42036,"byteLength":1536,"target":34962,"byteStride":8},{"buffer":0,"byteOffset":43572,"byteLength":576,"target":34963}],"buffers":[{"byteLength":44148,"uri":"data:application/octet-stream;base64,"}],"accessors":[{"bufferView":0,"componentType":5126,"count":60,"max":[0.009021097794175148,0.375,0.0078125],"min":[-0.009021097794175148,0,-0.0078125],"type":"VEC3"},{"bufferView":1,"componentType":5126,"count":60,"max":[0.8660253882408142,1,1],"min":[-0.8660253882408142,-1,-1],"type":"VEC3"},{"bufferView":2,"componentType":5126,"count":60,"max":[0.29138725996017456,0.375],"min":[0.02344212681055069,0],"type":"VEC2"},{"bufferView":3,"componentType":5123,"count":72,"max":[59],"min":[0],"type":"SCALAR"},{"bufferView":4,"componentType":5126,"count":40,"max":[0.01718750037252903,0.08124999701976776,0.06718750298023224],"min":[-0.01718750037252903,-0.04218750074505806,-0.03437500074505806],"type":"VEC3"},{"bufferView":5,"componentType":5126,"count":40,"max":[1,1,1],"min":[-1,-0.9775147438049316,-1],"type":"VEC3"},{"bufferView":6,"componentType":5126,"count":40,"max":[0.7218620777130127,0.621874988079071],"min":[0.00785070564597845,0.0043187737464904785],"type":"VEC2"},{"bufferView":7,"componentType":5123,"count":60,"max":[39],"min":[0],"type":"SCALAR"},{"bufferView":8,"componentType":5126,"count":584,"max":[0.04858439043164253,0.375,0.09531249850988388],"min":[-0.04858439043164253,-0.02500000037252903,-0.06093750149011612],"type":"VEC3"},{"bufferView":9,"componentType":5126,"count":584,"max":[0.9999954104423523,1,1],"min":[-0.9999954104423523,-1,-1],"type":"VEC3"},{"bufferView":10,"componentType":5126,"count":584,"max":[0.8110874891281128,0.9754645228385925],"min":[0.018758175894618034,0.00043004751205444336],"type":"VEC2"},{"bufferView":11,"componentType":5123,"count":840,"max":[583],"min":[0],"type":"SCALAR"},{"bufferView":12,"componentType":5126,"count":205,"max":[0.03608439117670059,0.19481131434440613,0.021255895495414734],"min":[-0.03608439117670059,-0.055188678205013275,-0.049056604504585266],"type":"VEC3"},{"bufferView":13,"componentType":5126,"count":205,"max":[1,1,1],"min":[-1,-1,-1],"type":"VEC3"},{"bufferView":14,"componentType":5126,"count":205,"max":[0.625,0.5647727251052856],"min":[0,0],"type":"VEC2"},{"bufferView":15,"componentType":5123,"count":297,"max":[204],"min":[0],"type":"SCALAR"},{"bufferView":16,"componentType":5126,"count":184,"max":[0.03750000149011612,0.02656250074505806,0.39375001192092896],"min":[-0.03750000149011612,-0.125,0.11249999701976776],"type":"VEC3"},{"bufferView":17,"componentType":5126,"count":184,"max":[1,1,1],"min":[-1,-1,-1],"type":"VEC3"},{"bufferView":18,"componentType":5126,"count":184,"max":[0.6498742699623108,0.6210373640060425],"min":[0.000017633228708291426,0],"type":"VEC2"},{"bufferView":19,"componentType":5123,"count":276,"max":[183],"min":[0],"type":"SCALAR"},{"bufferView":20,"componentType":5126,"count":192,"max":[0.05312500149011612,0.10468749701976776,0.11874999850988388],"min":[-0.012500000186264515,0.0062500000931322575,-0.05624999850988388],"type":"VEC3"},{"bufferView":21,"componentType":5126,"count":192,"max":[1,1,1],"min":[-1,-1,-1],"type":"VEC3"},{"bufferView":22,"componentType":5126,"count":192,"max":[0.5972644686698914,0.53125],"min":[0,0.0030812621116638184],"type":"VEC2"},{"bufferView":23,"componentType":5123,"count":288,"max":[191],"min":[0],"type":"SCALAR"}],"materials":[{"pbrMetallicRoughness":{"metallicFactor":0,"roughnessFactor":1,"baseColorTexture":{"index":0}},"alphaMode":"MASK","alphaCutoff":0.05,"doubleSided":true},{"pbrMetallicRoughness":{"metallicFactor":0,"roughnessFactor":1,"baseColorTexture":{"index":1}},"alphaMode":"MASK","alphaCutoff":0.05,"doubleSided":true},{"pbrMetallicRoughness":{"metallicFactor":0,"roughnessFactor":1,"baseColorTexture":{"index":2}},"alphaMode":"MASK","alphaCutoff":0.05,"doubleSided":true},{"pbrMetallicRoughness":{"metallicFactor":0,"roughnessFactor":1,"baseColorTexture":{"index":3}},"alphaMode":"MASK","alphaCutoff":0.05,"doubleSided":true},{"pbrMetallicRoughness":{"metallicFactor":0,"roughnessFactor":1,"baseColorTexture":{"index":4}},"alphaMode":"MASK","alphaCutoff":0.05,"doubleSided":true},{"pbrMetallicRoughness":{"metallicFactor":0,"roughnessFactor":1,"baseColorTexture":{"index":5}},"alphaMode":"MASK","alphaCutoff":0.05,"doubleSided":true}],"textures":[{"sampler":0,"source":0,"name":"manx_barrel_t.png"},{"sampler":1,"source":1,"name":"manx_grip_t.png"},{"sampler":2,"source":2,"name":"manx_reciever_t.png"},{"sampler":3,"source":3,"name":"manx_magazine_t.png"},{"sampler":4,"source":4,"name":"manx_stock_t.png"},{"sampler":5,"source":5,"name":"manx_optic_rail_t.png"}],"samplers":[{"magFilter":9728,"minFilter":9728,"wrapS":33071,"wrapT":33071},{"magFilter":9728,"minFilter":9728,"wrapS":33071,"wrapT":33071},{"magFilter":9728,"minFilter":9728,"wrapS":33071,"wrapT":33071},{"magFilter":9728,"minFilter":9728,"wrapS":33071,"wrapT":33071},{"magFilter":9728,"minFilter":9728,"wrapS":33071,"wrapT":33071},{"magFilter":9728,"minFilter":9728,"wrapS":33071,"wrapT":33071}],"images":[{"mimeType":"image/png","uri":"data:image/png;base64,"},{"mimeType":"image/png","uri":"data:image/png;base64,"},{"mimeType":"image/png","uri":"data:image/png;base64,"},{"mimeType":"image/png","uri":"data:image/png;base64,"},{"mimeType":"image/png","uri":"data:image/png;base64,"},{"mimeType":"image/png","uri":"data:image/png;base64,"}],"meshes":[{"primitives":[{"mode":4,"attributes":{"POSITION":0,"NORMAL":1,"TEXCOORD_0":2},"indices":3,"material":0}]},{"primitives":[{"mode":4,"attributes":{"POSITION":4,"NORMAL":5,"TEXCOORD_0":6},"indices":7,"material":1}]},{"primitives":[{"mode":4,"attributes":{"POSITION":8,"NORMAL":9,"TEXCOORD_0":10},"indices":11,"material":2}]},{"primitives":[{"mode":4,"attributes":{"POSITION":12,"NORMAL":13,"TEXCOORD_0":14},"indices":15,"material":3}]},{"primitives":[{"mode":4,"attributes":{"POSITION":16,"NORMAL":17,"TEXCOORD_0":18},"indices":19,"material":4}]},{"primitives":[{"mode":4,"attributes":{"POSITION":20,"NORMAL":21,"TEXCOORD_0":22},"indices":23,"material":5}]}]}