{"asset":{"version":"2.0","generator":"Blockbench 4.12.1 glTF exporter"},"scenes":[{"nodes":[1],"name":"blockbench_export"}],"scene":0,"nodes":[{"rotation":[0.4422887017929499,-3.0206498300300086e-15,-0.8968727358250485,1.8326117905744214e-15],"translation":[0.6480263157894737,0.0625,1.799342105263158],"name":"cuboid","mesh":0},{"children":[0]}],"bufferViews":[{"buffer":0,"byteOffset":0,"byteLength":102144,"target":34962,"byteStride":12},{"buffer":0,"byteOffset":102144,"byteLength":102144,"target":34962,"byteStride":12},{"buffer":0,"byteOffset":204288,"byteLength":68096,"target":34962,"byteStride":8},{"buffer":0,"byteOffset":272384,"byteLength":432,"target":34963},{"buffer":0,"byteOffset":272816,"byteLength":576,"target":34963},{"buffer":0,"byteOffset":273392,"byteLength":576,"target":34963},{"buffer":0,"byteOffset":273968,"byteLength":336,"target":34963},{"buffer":0,"byteOffset":274304,"byteLength":576,"target":34963},{"buffer":0,"byteOffset":274880,"byteLength":576,"target":34963},{"buffer":0,"byteOffset":275456,"byteLength":432,"target":34963},{"buffer":0,"byteOffset":275888,"byteLength":336,"target":34963},{"buffer":0,"byteOffset":276224,"byteLength":2880,"target":34963},{"buffer":0,"byteOffset":279104,"byteLength":432,"target":34963},{"buffer":0,"byteOffset":279536,"byteLength":336,"target":34963},{"buffer":0,"byteOffset":279872,"byteLength":576,"target":34963},{"buffer":0,"byteOffset":280448,"byteLength":432,"target":34963},{"buffer":0,"byteOffset":280880,"byteLength":576,"target":34963},{"buffer":0,"byteOffset":281456,"byteLength":576,"target":34963},{"buffer":0,"byteOffset":282032,"byteLength":576,"target":34963},{"buffer":0,"byteOffset":282608,"byteLength":336,"target":34963},{"buffer":0,"byteOffset":282944,"byteLength":432,"target":34963},{"buffer":0,"byteOffset":283376,"byteLength":576,"target":34963},{"buffer":0,"byteOffset":283952,"byteLength":576,"target":34963},{"buffer":0,"byteOffset":284528,"byteLength":432,"target":34963},{"buffer":0,"byteOffset":284960,"byteLength":336,"target":34963},{"buffer":0,"byteOffset":285296,"byteLength":576,"target":34963},{"buffer":0,"byteOffset":285872,"byteLength":576,"target":34963},{"buffer":0,"byteOffset":286448,"byteLength":336,"target":34963},{"buffer":0,"byteOffset":286784,"byteLength":3456,"target":34963},{"buffer":0,"byteOffset":290240,"byteLength":432,"target":34963},{"buffer":0,"byteOffset":290672,"byteLength":2304,"target":34963},{"buffer":0,"byteOffset":292976,"byteLength":672,"target":34963},{"buffer":0,"byteOffset":293648,"byteLength":576,"target":34963},{"buffer":0,"byteOffset":294224,"byteLength":336,"target":34963},{"buffer":0,"byteOffset":294560,"byteLength":576,"target":34963},{"buffer":0,"byteOffset":295136,"byteLength":576,"target":34963},{"buffer":0,"byteOffset":295712,"byteLength":432,"target":34963},{"buffer":0,"byteOffset":296144,"byteLength":336,"target":34963},{"buffer":0,"byteOffset":296480,"byteLength":1152,"target":34963}],"buffers":[{"byteLength":297632,"uri":"data:application/octet-stream;base64,"}],"accessors":[{"bufferView":0,"componentType":5126,"count":8512,"max":[4.329984188079834,0.25124841928482056,2.069190740585327],"min":[-0.5840814709663391,-2.4929821491241455,-3.4738569259643555],"type":"VEC3"},{"bufferView":1,"componentType":5126,"count":8512,"max":[1,1,1],"min":[-1,-1,-1],"type":"VEC3"},{"bufferView":2,"componentType":5126,"count":8512,"max":[0.96875,0.90625],"min":[0,0],"type":"VEC2"},{"bufferView":3,"componentType":5123,"count":216,"max":[145],"min":[0],"type":"SCALAR"},{"bufferView":4,"componentType":5123,"count":288,"max":[337],"min":[146],"type":"SCALAR"},{"bufferView":5,"componentType":5123,"count":288,"max":[529],"min":[338],"type":"SCALAR"},{"bufferView":6,"componentType":5123,"count":168,"max":[649],"min":[530],"type":"SCALAR"},{"bufferView":7,"componentType":5123,"count":288,"max":[841],"min":[650],"type":"SCALAR"},{"bufferView":8,"componentType":5123,"count":288,"max":[1033],"min":[842],"type":"SCALAR"},{"bufferView":9,"componentType":5123,"count":216,"max":[1179],"min":[1034],"type":"SCALAR"},{"bufferView":10,"componentType":5123,"count":168,"max":[1299],"min":[1180],"type":"SCALAR"},{"bufferView":11,"componentType":5123,"count":1440,"max":[2259],"min":[1300],"type":"SCALAR"},{"bufferView":12,"componentType":5123,"count":216,"max":[2405],"min":[2260],"type":"SCALAR"},{"bufferView":13,"componentType":5123,"count":168,"max":[2525],"min":[2406],"type":"SCALAR"},{"bufferView":14,"componentType":5123,"count":288,"max":[2717],"min":[2526],"type":"SCALAR"},{"bufferView":15,"componentType":5123,"count":216,"max":[2863],"min":[2718],"type":"SCALAR"},{"bufferView":16,"componentType":5123,"count":288,"max":[3055],"min":[2864],"type":"SCALAR"},{"bufferView":17,"componentType":5123,"count":288,"max":[3247],"min":[3056],"type":"SCALAR"},{"bufferView":18,"componentType":5123,"count":288,"max":[3439],"min":[3248],"type":"SCALAR"},{"bufferView":19,"componentType":5123,"count":168,"max":[3559],"min":[3440],"type":"SCALAR"},{"bufferView":20,"componentType":5123,"count":216,"max":[3705],"min":[3560],"type":"SCALAR"},{"bufferView":21,"componentType":5123,"count":288,"max":[3897],"min":[3706],"type":"SCALAR"},{"bufferView":22,"componentType":5123,"count":288,"max":[4089],"min":[3898],"type":"SCALAR"},{"bufferView":23,"componentType":5123,"count":216,"max":[4235],"min":[4090],"type":"SCALAR"},{"bufferView":24,"componentType":5123,"count":168,"max":[4355],"min":[4236],"type":"SCALAR"},{"bufferView":25,"componentType":5123,"count":288,"max":[4547],"min":[4356],"type":"SCALAR"},{"bufferView":26,"componentType":5123,"count":288,"max":[4739],"min":[4548],"type":"SCALAR"},{"bufferView":27,"componentType":5123,"count":168,"max":[4859],"min":[4740],"type":"SCALAR"},{"bufferView":28,"componentType":5123,"count":1728,"max":[6011],"min":[4860],"type":"SCALAR"},{"bufferView":29,"componentType":5123,"count":216,"max":[6157],"min":[6012],"type":"SCALAR"},{"bufferView":30,"componentType":5123,"count":1152,"max":[6925],"min":[6158],"type":"SCALAR"},{"bufferView":31,"componentType":5123,"count":336,"max":[7165],"min":[6926],"type":"SCALAR"},{"bufferView":32,"componentType":5123,"count":288,"max":[7357],"min":[7166],"type":"SCALAR"},{"bufferView":33,"componentType":5123,"count":168,"max":[7477],"min":[7358],"type":"SCALAR"},{"bufferView":34,"componentType":5123,"count":288,"max":[7669],"min":[7478],"type":"SCALAR"},{"bufferView":35,"componentType":5123,"count":288,"max":[7861],"min":[7670],"type":"SCALAR"},{"bufferView":36,"componentType":5123,"count":216,"max":[8007],"min":[7862],"type":"SCALAR"},{"bufferView":37,"componentType":5123,"count":168,"max":[8127],"min":[8008],"type":"SCALAR"},{"bufferView":38,"componentType":5123,"count":576,"max":[8511],"min":[8128],"type":"SCALAR"}],"materials":[{"pbrMetallicRoughness":{"metallicFactor":0,"roughnessFactor":1,"baseColorTexture":{"index":0}},"alphaMode":"MASK","alphaCutoff":0.05,"doubleSided":true},{"pbrMetallicRoughness":{"metallicFactor":0,"roughnessFactor":1,"baseColorTexture":{"index":1}},"alphaMode":"MASK","alphaCutoff":0.05,"doubleSided":true},{"pbrMetallicRoughness":{"metallicFactor":0,"roughnessFactor":1,"baseColorTexture":{"index":2}},"alphaMode":"MASK","alphaCutoff":0.05,"doubleSided":true},{"pbrMetallicRoughness":{"metallicFactor":0,"roughnessFactor":1,"baseColorTexture":{"index":3}},"alphaMode":"MASK","alphaCutoff":0.05,"doubleSided":true},{"pbrMetallicRoughness":{"metallicFactor":0,"roughnessFactor":1,"baseColorTexture":{"index":4}},"alphaMode":"MASK","alphaCutoff":0.05,"doubleSided":true}],"textures":[{"sampler":0,"source":0,"name":"rubble_piece_2_t.png"},{"sampler":1,"source":1,"name":"rubble_piece_1_t.png"},{"sampler":2,"source":2,"name":"rubble_piece_4_t.png"},{"sampler":3,"source":3,"name":"rubble_piece_5_t.png"},{"sampler":4,"source":4,"name":"rubble_piece_3_t.png"}],"samplers":[{"magFilter":9728,"minFilter":9728,"wrapS":33071,"wrapT":33071},{"magFilter":9728,"minFilter":9728,"wrapS":33071,"wrapT":33071},{"magFilter":9728,"minFilter":9728,"wrapS":33071,"wrapT":33071},{"magFilter":9728,"minFilter":9728,"wrapS":33071,"wrapT":33071},{"magFilter":9728,"minFilter":9728,"wrapS":33071,"wrapT":33071}],"images":[{"mimeType":"image/png","uri":"data:image/png;base64,"},{"mimeType":"image/png","uri":"data:image/png;base64,"},{"mimeType":"image/png","uri":"data:image/png;base64,"},{"mimeType":"image/png","uri":"data:image/png;base64,"},{"mimeType":"image/png","uri":"data:image/png;base64,"}],"meshes":[{"primitives":[{"mode":4,"attributes":{"POSITION":0,"NORMAL":1,"TEXCOORD_0":2},"indices":3,"material":0},{"mode":4,"attributes":{"POSITION":0,"NORMAL":1,"TEXCOORD_0":2},"indices":4,"material":1},{"mode":4,"attributes":{"POSITION":0,"NORMAL":1,"TEXCOORD_0":2},"indices":5,"material":2},{"mode":4,"attributes":{"POSITION":0,"NORMAL":1,"TEXCOORD_0":2},"indices":6,"material":3},{"mode":4,"attributes":{"POSITION":0,"NORMAL":1,"TEXCOORD_0":2},"indices":7,"material":4},{"mode":4,"attributes":{"POSITION":0,"NORMAL":1,"TEXCOORD_0":2},"indices":8,"material":1},{"mode":4,"attributes":{"POSITION":0,"NORMAL":1,"TEXCOORD_0":2},"indices":9,"material":0},{"mode":4,"attributes":{"POSITION":0,"NORMAL":1,"TEXCOORD_0":2},"indices":10,"material":3},{"mode":4,"attributes":{"POSITION":0,"NORMAL":1,"TEXCOORD_0":2},"indices":11,"material":1},{"mode":4,"attributes":{"POSITION":0,"NORMAL":1,"TEXCOORD_0":2},"indices":12,"material":0},{"mode":4,"attributes":{"POSITION":0,"NORMAL":1,"TEXCOORD_0":2},"indices":13,"material":3},{"mode":4,"attributes":{"POSITION":0,"NORMAL":1,"TEXCOORD_0":2},"indices":14,"material":2},{"mode":4,"attributes":{"POSITION":0,"NORMAL":1,"TEXCOORD_0":2},"indices":15,"material":0},{"mode":4,"attributes":{"POSITION":0,"NORMAL":1,"TEXCOORD_0":2},"indices":16,"material":1},{"mode":4,"attributes":{"POSITION":0,"NORMAL":1,"TEXCOORD_0":2},"indices":17,"material":4},{"mode":4,"attributes":{"POSITION":0,"NORMAL":1,"TEXCOORD_0":2},"indices":18,"material":1},{"mode":4,"attributes":{"POSITION":0,"NORMAL":1,"TEXCOORD_0":2},"indices":19,"material":3},{"mode":4,"attributes":{"POSITION":0,"NORMAL":1,"TEXCOORD_0":2},"indices":20,"material":0},{"mode":4,"attributes":{"POSITION":0,"NORMAL":1,"TEXCOORD_0":2},"indices":21,"material":1},{"mode":4,"attributes":{"POSITION":0,"NORMAL":1,"TEXCOORD_0":2},"indices":22,"material":2},{"mode":4,"attributes":{"POSITION":0,"NORMAL":1,"TEXCOORD_0":2},"indices":23,"material":0},{"mode":4,"attributes":{"POSITION":0,"NORMAL":1,"TEXCOORD_0":2},"indices":24,"material":3},{"mode":4,"attributes":{"POSITION":0,"NORMAL":1,"TEXCOORD_0":2},"indices":25,"material":1},{"mode":4,"attributes":{"POSITION":0,"NORMAL":1,"TEXCOORD_0":2},"indices":26,"material":2},{"mode":4,"attributes":{"POSITION":0,"NORMAL":1,"TEXCOORD_0":2},"indices":27,"material":3},{"mode":4,"attributes":{"POSITION":0,"NORMAL":1,"TEXCOORD_0":2},"indices":28,"material":1},{"mode":4,"attributes":{"POSITION":0,"NORMAL":1,"TEXCOORD_0":2},"indices":29,"material":0},{"mode":4,"attributes":{"POSITION":0,"NORMAL":1,"TEXCOORD_0":2},"indices":30,"material":1},{"mode":4,"attributes":{"POSITION":0,"NORMAL":1,"TEXCOORD_0":2},"indices":31,"material":3},{"mode":4,"attributes":{"POSITION":0,"NORMAL":1,"TEXCOORD_0":2},"indices":32,"material":1},{"mode":4,"attributes":{"POSITION":0,"NORMAL":1,"TEXCOORD_0":2},"indices":33,"material":3},{"mode":4,"attributes":{"POSITION":0,"NORMAL":1,"TEXCOORD_0":2},"indices":34,"material":2},{"mode":4,"attributes":{"POSITION":0,"NORMAL":1,"TEXCOORD_0":2},"indices":35,"material":1},{"mode":4,"attributes":{"POSITION":0,"NORMAL":1,"TEXCOORD_0":2},"indices":36,"material":0},{"mode":4,"attributes":{"POSITION":0,"NORMAL":1,"TEXCOORD_0":2},"indices":37,"material":3},{"mode":4,"attributes":{"POSITION":0,"NORMAL":1,"TEXCOORD_0":2},"indices":38,"material":1}]}]}