{"asset":{"version":"2.0","generator":"Blockbench 4.12.1 glTF exporter"},"scenes":[{"nodes":[12],"name":"blockbench_export"}],"scene":0,"nodes":[{"rotation":[0,0,0.7071067811865475,0.7071067811865476],"translation":[0,0.0625,0],"name":"black_bag_1","mesh":0},{"rotation":[0.2608784937486624,0.43714873572702473,0.09319069322455607,0.8556628360797375],"translation":[0,0.0625,-0.375],"name":"blue_bag_1","mesh":1},{"translation":[0.1875,0,0],"name":"cardboard_box_1","mesh":2},{"rotation":[0,0,-0.25881904510252074,0.9659258262890683],"translation":[0.00625,0.25,0],"name":"small_box","mesh":3},{"rotation":[-0.664463024388675,-0.6644630243886743,0.2418447626479752,0.24184476264797553],"translation":[0.875,0.1875,0.625],"name":"big_yellow_bag","mesh":4},{"rotation":[-0.2798290140309921,0,0,0.9600498543859287],"translation":[0.6875,0,-0.3125],"name":"cardboard_box_2","mesh":5},{"rotation":[0.10863378251613316,0.007120234284824852,-0.06501439515079717,0.9919279872970329],"translation":[0.625,0.8125,0.375],"name":"tire_1","mesh":6},{"rotation":[0.49439230299106296,0.7995285965289118,-0.247713207213332,-0.23445349442434513],"translation":[0.6875,0.5,0.375],"name":"red_bag_1","mesh":7},{"rotation":[-0.2871566594680143,-0.3241321664263862,0.641131668728185,0.6335847022811718],"translation":[0.5625,0.5,0.0625],"name":"black_bag_2","mesh":8},{"rotation":[-0.07754382045710745,0.08485951621581561,0.31895556186637797,0.9407726441447141],"translation":[0.4375,0.125,-0.25],"name":"black_bag_3","mesh":9},{"rotation":[0.08319326725586937,0.055497863800807526,0.7162625512100571,0.6906278485051851],"translation":[0.4375,0.5,0.375],"name":"blue_bag_2","mesh":10},{"rotation":[0.40188437828035006,-0.012759517542371219,-0.06414642644123467,0.9133517269820655],"translation":[0.375,0.25,0.8125],"name":"tire_2","mesh":11},{"children":[0,1,2,3,4,5,6,7,8,9,10,11]}],"bufferViews":[{"buffer":0,"byteOffset":0,"byteLength":1344,"target":34962,"byteStride":12},{"buffer":0,"byteOffset":1344,"byteLength":1344,"target":34962,"byteStride":12},{"buffer":0,"byteOffset":2688,"byteLength":896,"target":34962,"byteStride":8},{"buffer":0,"byteOffset":3584,"byteLength":288,"target":34963},{"buffer":0,"byteOffset":3872,"byteLength":1344,"target":34962,"byteStride":12},{"buffer":0,"byteOffset":5216,"byteLength":1344,"target":34962,"byteStride":12},{"buffer":0,"byteOffset":6560,"byteLength":896,"target":34962,"byteStride":8},{"buffer":0,"byteOffset":7456,"byteLength":288,"target":34963},{"buffer":0,"byteOffset":7744,"byteLength":288,"target":34962,"byteStride":12},{"buffer":0,"byteOffset":8032,"byteLength":288,"target":34962,"byteStride":12},{"buffer":0,"byteOffset":8320,"byteLength":192,"target":34962,"byteStride":8},{"buffer":0,"byteOffset":8512,"byteLength":72,"target":34963},{"buffer":0,"byteOffset":8584,"byteLength":288,"target":34962,"byteStride":12},{"buffer":0,"byteOffset":8872,"byteLength":288,"target":34962,"byteStride":12},{"buffer":0,"byteOffset":9160,"byteLength":192,"target":34962,"byteStride":8},{"buffer":0,"byteOffset":9352,"byteLength":72,"target":34963},{"buffer":0,"byteOffset":9424,"byteLength":1848,"target":34962,"byteStride":12},{"buffer":0,"byteOffset":11272,"byteLength":1848,"target":34962,"byteStride":12},{"buffer":0,"byteOffset":13120,"byteLength":1232,"target":34962,"byteStride":8},{"buffer":0,"byteOffset":14352,"byteLength":396,"target":34963},{"buffer":0,"byteOffset":14748,"byteLength":288,"target":34962,"byteStride":12},{"buffer":0,"byteOffset":15036,"byteLength":288,"target":34962,"byteStride":12},{"buffer":0,"byteOffset":15324,"byteLength":192,"target":34962,"byteStride":8},{"buffer":0,"byteOffset":15516,"byteLength":72,"target":34963},{"buffer":0,"byteOffset":15588,"byteLength":3072,"target":34962,"byteStride":12},{"buffer":0,"byteOffset":18660,"byteLength":3072,"target":34962,"byteStride":12},{"buffer":0,"byteOffset":21732,"byteLength":2048,"target":34962,"byteStride":8},{"buffer":0,"byteOffset":23780,"byteLength":768,"target":34963},{"buffer":0,"byteOffset":24548,"byteLength":1344,"target":34962,"byteStride":12},{"buffer":0,"byteOffset":25892,"byteLength":1344,"target":34962,"byteStride":12},{"buffer":0,"byteOffset":27236,"byteLength":896,"target":34962,"byteStride":8},{"buffer":0,"byteOffset":28132,"byteLength":288,"target":34963},{"buffer":0,"byteOffset":28420,"byteLength":1344,"target":34962,"byteStride":12},{"buffer":0,"byteOffset":29764,"byteLength":1344,"target":34962,"byteStride":12},{"buffer":0,"byteOffset":31108,"byteLength":896,"target":34962,"byteStride":8},{"buffer":0,"byteOffset":32004,"byteLength":288,"target":34963},{"buffer":0,"byteOffset":32292,"byteLength":1344,"target":34962,"byteStride":12},{"buffer":0,"byteOffset":33636,"byteLength":1344,"target":34962,"byteStride":12},{"buffer":0,"byteOffset":34980,"byteLength":896,"target":34962,"byteStride":8},{"buffer":0,"byteOffset":35876,"byteLength":288,"target":34963},{"buffer":0,"byteOffset":36164,"byteLength":1344,"target":34962,"byteStride":12},{"buffer":0,"byteOffset":37508,"byteLength":1344,"target":34962,"byteStride":12},{"buffer":0,"byteOffset":38852,"byteLength":896,"target":34962,"byteStride":8},{"buffer":0,"byteOffset":39748,"byteLength":288,"target":34963},{"buffer":0,"byteOffset":40036,"byteLength":3072,"target":34962,"byteStride":12},{"buffer":0,"byteOffset":43108,"byteLength":3072,"target":34962,"byteStride":12},{"buffer":0,"byteOffset":46180,"byteLength":2048,"target":34962,"byteStride":8},{"buffer":0,"byteOffset":48228,"byteLength":768,"target":34963}],"buffers":[{"byteLength":48996,"uri":"data:application/octet-stream;base64,"}],"accessors":[{"bufferView":0,"componentType":5126,"count":112,"max":[0.25,0.4375,0.25],"min":[-0.125,-0.125,-0.25],"type":"VEC3"},{"bufferView":1,"componentType":5126,"count":112,"max":[0.9562275409698486,0.793184757232666,0.9562275409698486],"min":[-0.9989972710609436,-0.9238795042037964,-0.9562275409698486],"type":"VEC3"},{"bufferView":2,"componentType":5126,"count":112,"max":[0.5774275064468384,0.642569899559021],"min":[0.017785562202334404,0.027856051921844482],"type":"VEC2"},{"bufferView":3,"componentType":5123,"count":144,"max":[111],"min":[0],"type":"SCALAR"},{"bufferView":4,"componentType":5126,"count":112,"max":[0.25,0.4375,0.25],"min":[-0.125,-0.125,-0.25],"type":"VEC3"},{"bufferView":5,"componentType":5126,"count":112,"max":[0.9562275409698486,0.793184757232666,0.9562275409698486],"min":[-0.9989972710609436,-0.9238795042037964,-0.9562275409698486],"type":"VEC3"},{"bufferView":6,"componentType":5126,"count":112,"max":[0.6696080565452576,0.736549973487854],"min":[0.002909374888986349,0],"type":"VEC2"},{"bufferView":7,"componentType":5123,"count":144,"max":[111],"min":[0],"type":"SCALAR"},{"bufferView":8,"componentType":5126,"count":24,"max":[0.4375,0.375,0.5625],"min":[-0.0625,0,-0.0625],"type":"VEC3"},{"bufferView":9,"componentType":5126,"count":24,"max":[1,1,1],"min":[-1,-1,-1],"type":"VEC3"},{"bufferView":10,"componentType":5126,"count":24,"max":[0.75,0.6875],"min":[0,0],"type":"VEC2"},{"bufferView":11,"componentType":5123,"count":36,"max":[23],"min":[0],"type":"SCALAR"},{"bufferView":12,"componentType":5126,"count":24,"max":[0.0625,0.125,0.0625],"min":[-0.0625,0,-0.0625],"type":"VEC3"},{"bufferView":13,"componentType":5126,"count":24,"max":[1,1,1],"min":[-1,-1,-1],"type":"VEC3"},{"bufferView":14,"componentType":5126,"count":24,"max":[0.75,0.75],"min":[0,0],"type":"VEC2"},{"bufferView":15,"componentType":5123,"count":36,"max":[23],"min":[0],"type":"SCALAR"},{"bufferView":16,"componentType":5126,"count":154,"max":[0.5,0.875,0.5],"min":[-0.25,-0.25,-0.5401742458343506],"type":"VEC3"},{"bufferView":17,"componentType":5126,"count":154,"max":[0.938685417175293,0.8259807229042053,0.9607967138290405],"min":[-0.9989972710609436,-0.9238795042037964,-0.9510367512702942],"type":"VEC3"},{"bufferView":18,"componentType":5126,"count":154,"max":[0.6640625,0.6690917015075684],"min":[0.0012288601137697697,0],"type":"VEC2"},{"bufferView":19,"componentType":5123,"count":198,"max":[153],"min":[0],"type":"SCALAR"},{"bufferView":20,"componentType":5126,"count":24,"max":[0.4375,0.375,0.5625],"min":[-0.0625,0,-0.0625],"type":"VEC3"},{"bufferView":21,"componentType":5126,"count":24,"max":[1,1,1],"min":[-1,-1,-1],"type":"VEC3"},{"bufferView":22,"componentType":5126,"count":24,"max":[0.75,0.6875],"min":[0,0],"type":"VEC2"},{"bufferView":23,"componentType":5123,"count":36,"max":[23],"min":[0],"type":"SCALAR"},{"bufferView":24,"componentType":5126,"count":256,"max":[0.375,0.13529902696609497,0.375],"min":[-0.375,-0.13529902696609497,-0.375],"type":"VEC3"},{"bufferView":25,"componentType":5126,"count":256,"max":[0.933948814868927,0.9124869704246521,0.933948814868927],"min":[-0.933948814868927,-0.9124869704246521,-0.933948814868927],"type":"VEC3"},{"bufferView":26,"componentType":5126,"count":256,"max":[0.5234375,0.5],"min":[0.00022968750272411853,0],"type":"VEC2"},{"bufferView":27,"componentType":5123,"count":384,"max":[255],"min":[0],"type":"SCALAR"},{"bufferView":28,"componentType":5126,"count":112,"max":[0.25,0.4375,0.25],"min":[-0.125,-0.125,-0.25],"type":"VEC3"},{"bufferView":29,"componentType":5126,"count":112,"max":[0.9562275409698486,0.793184757232666,0.9562275409698486],"min":[-0.9989972710609436,-0.9238795042037964,-0.9562275409698486],"type":"VEC3"},{"bufferView":30,"componentType":5126,"count":112,"max":[0.6696080565452576,0.736549973487854],"min":[0.002909374888986349,0],"type":"VEC2"},{"bufferView":31,"componentType":5123,"count":144,"max":[111],"min":[0],"type":"SCALAR"},{"bufferView":32,"componentType":5126,"count":112,"max":[0.25,0.4375,0.25],"min":[-0.125,-0.125,-0.25],"type":"VEC3"},{"bufferView":33,"componentType":5126,"count":112,"max":[0.9562275409698486,0.793184757232666,0.9562275409698486],"min":[-0.9989972710609436,-0.9238795042037964,-0.9562275409698486],"type":"VEC3"},{"bufferView":34,"componentType":5126,"count":112,"max":[0.5774275064468384,0.642569899559021],"min":[0.017785562202334404,0.027856051921844482],"type":"VEC2"},{"bufferView":35,"componentType":5123,"count":144,"max":[111],"min":[0],"type":"SCALAR"},{"bufferView":36,"componentType":5126,"count":112,"max":[0.25,0.4375,0.25],"min":[-0.125,-0.125,-0.25],"type":"VEC3"},{"bufferView":37,"componentType":5126,"count":112,"max":[0.9562275409698486,0.793184757232666,0.9562275409698486],"min":[-0.9989972710609436,-0.9238795042037964,-0.9562275409698486],"type":"VEC3"},{"bufferView":38,"componentType":5126,"count":112,"max":[0.5774275064468384,0.642569899559021],"min":[0.017785562202334404,0.027856051921844482],"type":"VEC2"},{"bufferView":39,"componentType":5123,"count":144,"max":[111],"min":[0],"type":"SCALAR"},{"bufferView":40,"componentType":5126,"count":112,"max":[0.25,0.4375,0.25],"min":[-0.125,-0.125,-0.25],"type":"VEC3"},{"bufferView":41,"componentType":5126,"count":112,"max":[0.9562275409698486,0.793184757232666,0.9562275409698486],"min":[-0.9989972710609436,-0.9238795042037964,-0.9562275409698486],"type":"VEC3"},{"bufferView":42,"componentType":5126,"count":112,"max":[0.6696080565452576,0.736549973487854],"min":[0.002909374888986349,0],"type":"VEC2"},{"bufferView":43,"componentType":5123,"count":144,"max":[111],"min":[0],"type":"SCALAR"},{"bufferView":44,"componentType":5126,"count":256,"max":[0.375,0.13529902696609497,0.375],"min":[-0.375,-0.13529902696609497,-0.375],"type":"VEC3"},{"bufferView":45,"componentType":5126,"count":256,"max":[0.933948814868927,0.9124869704246521,0.933948814868927],"min":[-0.933948814868927,-0.9124869704246521,-0.933948814868927],"type":"VEC3"},{"bufferView":46,"componentType":5126,"count":256,"max":[0.5234375,0.5],"min":[0.00022968750272411853,0],"type":"VEC2"},{"bufferView":47,"componentType":5123,"count":384,"max":[255],"min":[0],"type":"SCALAR"}],"materials":[{"pbrMetallicRoughness":{"metallicFactor":0,"roughnessFactor":1,"baseColorTexture":{"index":0}},"alphaMode":"MASK","alphaCutoff":0.05,"doubleSided":true},{"pbrMetallicRoughness":{"metallicFactor":0,"roughnessFactor":1,"baseColorTexture":{"index":1}},"alphaMode":"MASK","alphaCutoff":0.05,"doubleSided":true},{"pbrMetallicRoughness":{"metallicFactor":0,"roughnessFactor":1,"baseColorTexture":{"index":2}},"alphaMode":"MASK","alphaCutoff":0.05,"doubleSided":true},{"pbrMetallicRoughness":{"metallicFactor":0,"roughnessFactor":1,"baseColorTexture":{"index":3}},"alphaMode":"MASK","alphaCutoff":0.05,"doubleSided":true},{"pbrMetallicRoughness":{"metallicFactor":0,"roughnessFactor":1,"baseColorTexture":{"index":4}},"alphaMode":"MASK","alphaCutoff":0.05,"doubleSided":true},{"pbrMetallicRoughness":{"metallicFactor":0,"roughnessFactor":1,"baseColorTexture":{"index":5}},"alphaMode":"MASK","alphaCutoff":0.05,"doubleSided":true},{"pbrMetallicRoughness":{"metallicFactor":0,"roughnessFactor":1,"baseColorTexture":{"index":6}},"alphaMode":"MASK","alphaCutoff":0.05,"doubleSided":true}],"textures":[{"sampler":0,"source":0,"name":"black_bag_t"},{"sampler":1,"source":1,"name":"blue_bag_t"},{"sampler":2,"source":2,"name":"cardboard_box_t.png"},{"sampler":3,"source":3,"name":"small_box_t"},{"sampler":4,"source":4,"name":"yellow_bag_t"},{"sampler":5,"source":5,"name":"tire_t"},{"sampler":6,"source":6,"name":"red_bag_t"}],"samplers":[{"magFilter":9728,"minFilter":9728,"wrapS":33071,"wrapT":33071},{"magFilter":9728,"minFilter":9728,"wrapS":33071,"wrapT":33071},{"magFilter":9728,"minFilter":9728,"wrapS":33071,"wrapT":33071},{"magFilter":9728,"minFilter":9728,"wrapS":33071,"wrapT":33071},{"magFilter":9728,"minFilter":9728,"wrapS":33071,"wrapT":33071},{"magFilter":9728,"minFilter":9728,"wrapS":33071,"wrapT":33071},{"magFilter":9728,"minFilter":9728,"wrapS":33071,"wrapT":33071}],"images":[{"mimeType":"image/png","uri":"data:image/png;base64,"},{"mimeType":"image/png","uri":"data:image/png;base64,"},{"mimeType":"image/png","uri":"data:image/png;base64,"},{"mimeType":"image/png","uri":"data:image/png;base64,"},{"mimeType":"image/png","uri":"data:image/png;base64,"},{"mimeType":"image/png","uri":"data:image/png;base64,"},{"mimeType":"image/png","uri":"data:image/png;base64,"}],"meshes":[{"primitives":[{"mode":4,"attributes":{"POSITION":0,"NORMAL":1,"TEXCOORD_0":2},"indices":3,"material":0}]},{"primitives":[{"mode":4,"attributes":{"POSITION":4,"NORMAL":5,"TEXCOORD_0":6},"indices":7,"material":1}]},{"primitives":[{"mode":4,"attributes":{"POSITION":8,"NORMAL":9,"TEXCOORD_0":10},"indices":11,"material":2}]},{"primitives":[{"mode":4,"attributes":{"POSITION":12,"NORMAL":13,"TEXCOORD_0":14},"indices":15,"material":3}]},{"primitives":[{"mode":4,"attributes":{"POSITION":16,"NORMAL":17,"TEXCOORD_0":18},"indices":19,"material":4}]},{"primitives":[{"mode":4,"attributes":{"POSITION":20,"NORMAL":21,"TEXCOORD_0":22},"indices":23,"material":2}]},{"primitives":[{"mode":4,"attributes":{"POSITION":24,"NORMAL":25,"TEXCOORD_0":26},"indices":27,"material":5}]},{"primitives":[{"mode":4,"attributes":{"POSITION":28,"NORMAL":29,"TEXCOORD_0":30},"indices":31,"material":6}]},{"primitives":[{"mode":4,"attributes":{"POSITION":32,"NORMAL":33,"TEXCOORD_0":34},"indices":35,"material":0}]},{"primitives":[{"mode":4,"attributes":{"POSITION":36,"NORMAL":37,"TEXCOORD_0":38},"indices":39,"material":0}]},{"primitives":[{"mode":4,"attributes":{"POSITION":40,"NORMAL":41,"TEXCOORD_0":42},"indices":43,"material":1}]},{"primitives":[{"mode":4,"attributes":{"POSITION":44,"NORMAL":45,"TEXCOORD_0":46},"indices":47,"material":5}]}]}