{"asset":{"version":"2.0","generator":"Blockbench 4.12.1 glTF exporter"},"scenes":[{"nodes":[5],"name":"blockbench_export"}],"scene":0,"nodes":[{"rotation":[-0.6532814696555079,-0.27059804451503083,0.27059805563116596,0.6532814952208683],"translation":[0,0,-0.0625],"name":"barrel","mesh":0},{"rotation":[-0.7071067811865475,0,0,0.7071067811865476],"translation":[0,0,0.25],"name":"reciever","mesh":1},{"translation":[0,-0.11875,0.10156250000000003],"name":"grip","mesh":2},{"rotation":[0.7071067811865475,0,0,0.7071067811865476],"translation":[0,-0.00625,0.18281249999999982],"name":"stock","mesh":3},{"translation":[0,0.03125,0.15000000000000002],"name":"sights","mesh":4},{"children":[0,1,2,3,4]}],"bufferViews":[{"buffer":0,"byteOffset":0,"byteLength":480,"target":34962,"byteStride":12},{"buffer":0,"byteOffset":480,"byteLength":480,"target":34962,"byteStride":12},{"buffer":0,"byteOffset":960,"byteLength":320,"target":34962,"byteStride":8},{"buffer":0,"byteOffset":1280,"byteLength":96,"target":34963},{"buffer":0,"byteOffset":1376,"byteLength":9888,"target":34962,"byteStride":12},{"buffer":0,"byteOffset":11264,"byteLength":9888,"target":34962,"byteStride":12},{"buffer":0,"byteOffset":21152,"byteLength":6592,"target":34962,"byteStride":8},{"buffer":0,"byteOffset":27744,"byteLength":2472,"target":34963},{"buffer":0,"byteOffset":30216,"byteLength":480,"target":34962,"byteStride":12},{"buffer":0,"byteOffset":30696,"byteLength":480,"target":34962,"byteStride":12},{"buffer":0,"byteOffset":31176,"byteLength":320,"target":34962,"byteStride":8},{"buffer":0,"byteOffset":31496,"byteLength":120,"target":34963},{"buffer":0,"byteOffset":31616,"byteLength":1920,"target":34962,"byteStride":12},{"buffer":0,"byteOffset":33536,"byteLength":1920,"target":34962,"byteStride":12},{"buffer":0,"byteOffset":35456,"byteLength":1280,"target":34962,"byteStride":8},{"buffer":0,"byteOffset":36736,"byteLength":456,"target":34963},{"buffer":0,"byteOffset":37192,"byteLength":7776,"target":34962,"byteStride":12},{"buffer":0,"byteOffset":44968,"byteLength":7776,"target":34962,"byteStride":12},{"buffer":0,"byteOffset":52744,"byteLength":5184,"target":34962,"byteStride":8},{"buffer":0,"byteOffset":57928,"byteLength":1764,"target":34963},{"buffer":0,"byteOffset":59692,"byteLength":12,"target":34963},{"buffer":0,"byteOffset":59704,"byteLength":168,"target":34963}],"buffers":[{"byteLength":59872,"uri":"data:application/octet-stream;base64,"}],"accessors":[{"bufferView":0,"componentType":5126,"count":40,"max":[0.015625,0.39375001192092896,0.015625],"min":[-0.015625,-0.01875000074505806,-0.015624999068677425],"type":"VEC3"},{"bufferView":1,"componentType":5126,"count":40,"max":[1,1,1],"min":[-1,-1,-1],"type":"VEC3"},{"bufferView":2,"componentType":5126,"count":40,"max":[0.26395145058631897,0.025670230388641357],"min":[0.020201455801725388,0.010045230388641357],"type":"VEC2"},{"bufferView":3,"componentType":5123,"count":48,"max":[39],"min":[0],"type":"SCALAR"},{"bufferView":4,"componentType":5126,"count":824,"max":[0.03746898099780083,0.5,0.03750000149011612],"min":[-0.03746898099780083,0.05624999850988388,-0.07500000298023224],"type":"VEC3"},{"bufferView":5,"componentType":5126,"count":824,"max":[1,1,1],"min":[-1,-1,-1],"type":"VEC3"},{"bufferView":6,"componentType":5126,"count":824,"max":[0.7105218172073364,0.5975534319877625],"min":[0.03057071752846241,0.046875],"type":"VEC2"},{"bufferView":7,"componentType":5123,"count":1236,"max":[823],"min":[0],"type":"SCALAR"},{"bufferView":8,"componentType":5126,"count":40,"max":[0.01718750037252903,0.0625,0.04843749850988388],"min":[-0.01718750037252903,-0.0234375,-0.015625],"type":"VEC3"},{"bufferView":9,"componentType":5126,"count":40,"max":[1,1,1],"min":[-1,-0.9728062152862549,-1],"type":"VEC3"},{"bufferView":10,"componentType":5126,"count":40,"max":[0.11874999850988388,0.7225375175476074],"min":[0.015625,0.5859375],"type":"VEC2"},{"bufferView":11,"componentType":5123,"count":60,"max":[39],"min":[0],"type":"SCALAR"},{"bufferView":12,"componentType":5126,"count":160,"max":[0.015625,0.2874999940395355,0.10312499850988388],"min":[-0.015625,0.0062500000931322575,-0.02187499962747097],"type":"VEC3"},{"bufferView":13,"componentType":5126,"count":160,"max":[1,0.9931505918502808,0.9838699102401733],"min":[-1,-1,-1],"type":"VEC3"},{"bufferView":14,"componentType":5126,"count":160,"max":[0.44634607434272766,0.9765625],"min":[0,0],"type":"VEC2"},{"bufferView":15,"componentType":5123,"count":228,"max":[159],"min":[0],"type":"SCALAR"},{"bufferView":16,"componentType":5126,"count":648,"max":[0.01406249962747097,0.03593749925494194,0.0078125],"min":[-0.01406249962747097,0,-0.3578124940395355],"type":"VEC3"},{"bufferView":17,"componentType":5126,"count":648,"max":[1,1,1],"min":[-1,-1,-1],"type":"VEC3"},{"bufferView":18,"componentType":5126,"count":648,"max":[0.8939152359962463,0.6312500238418579],"min":[0.125,0.006184875965118408],"type":"VEC2"},{"bufferView":19,"componentType":5123,"count":882,"max":[587],"min":[0],"type":"SCALAR"},{"bufferView":20,"componentType":5123,"count":6,"max":[591],"min":[588],"type":"SCALAR"},{"bufferView":21,"componentType":5123,"count":84,"max":[647],"min":[592],"type":"SCALAR"}],"materials":[{"pbrMetallicRoughness":{"metallicFactor":0,"roughnessFactor":1,"baseColorTexture":{"index":0}},"alphaMode":"MASK","alphaCutoff":0.05,"doubleSided":true},{"pbrMetallicRoughness":{"metallicFactor":0,"roughnessFactor":1,"baseColorTexture":{"index":1}},"alphaMode":"MASK","alphaCutoff":0.05,"doubleSided":true},{"pbrMetallicRoughness":{"metallicFactor":0,"roughnessFactor":1,"baseColorTexture":{"index":2}},"alphaMode":"MASK","alphaCutoff":0.05,"doubleSided":true}],"textures":[{"sampler":0,"source":0,"name":"cdr_barrel_t.png"},{"sampler":1,"source":1,"name":"cdr_t.png"},{"sampler":2,"source":2,"name":"cdr_sight_t.png"}],"samplers":[{"magFilter":9728,"minFilter":9728,"wrapS":33071,"wrapT":33071},{"magFilter":9728,"minFilter":9728,"wrapS":33071,"wrapT":33071},{"magFilter":9728,"minFilter":9728,"wrapS":33071,"wrapT":33071}],"images":[{"mimeType":"image/png","uri":"data:image/png;base64,"},{"mimeType":"image/png","uri":"data:image/png;base64,"},{"mimeType":"image/png","uri":"data:image/png;base64,"}],"meshes":[{"primitives":[{"mode":4,"attributes":{"POSITION":0,"NORMAL":1,"TEXCOORD_0":2},"indices":3,"material":0}]},{"primitives":[{"mode":4,"attributes":{"POSITION":4,"NORMAL":5,"TEXCOORD_0":6},"indices":7,"material":1}]},{"primitives":[{"mode":4,"attributes":{"POSITION":8,"NORMAL":9,"TEXCOORD_0":10},"indices":11,"material":1}]},{"primitives":[{"mode":4,"attributes":{"POSITION":12,"NORMAL":13,"TEXCOORD_0":14},"indices":15,"material":1}]},{"primitives":[{"mode":4,"attributes":{"POSITION":16,"NORMAL":17,"TEXCOORD_0":18},"indices":19,"material":1},{"mode":4,"attributes":{"POSITION":16,"NORMAL":17,"TEXCOORD_0":18},"indices":20,"material":2},{"mode":4,"attributes":{"POSITION":16,"NORMAL":17,"TEXCOORD_0":18},"indices":21,"material":1}]}]}