{"asset":{"version":"2.0","generator":"Blockbench 4.12.5 glTF exporter"},"scenes":[{"nodes":[3],"name":"blockbench_export"}],"scene":0,"nodes":[{"name":"tube","mesh":0},{"name":"glass","mesh":1},{"translation":[0,0.125,0],"name":"sample","mesh":2},{"children":[0,1,2]}],"bufferViews":[{"buffer":0,"byteOffset":0,"byteLength":2496,"target":34962,"byteStride":12},{"buffer":0,"byteOffset":2496,"byteLength":2496,"target":34962,"byteStride":12},{"buffer":0,"byteOffset":4992,"byteLength":1664,"target":34962,"byteStride":8},{"buffer":0,"byteOffset":6656,"byteLength":552,"target":34963},{"buffer":0,"byteOffset":7208,"byteLength":1440,"target":34962,"byteStride":12},{"buffer":0,"byteOffset":8648,"byteLength":1440,"target":34962,"byteStride":12},{"buffer":0,"byteOffset":10088,"byteLength":960,"target":34962,"byteStride":8},{"buffer":0,"byteOffset":11048,"byteLength":288,"target":34963},{"buffer":0,"byteOffset":11336,"byteLength":1152,"target":34962,"byteStride":12},{"buffer":0,"byteOffset":12488,"byteLength":1152,"target":34962,"byteStride":12},{"buffer":0,"byteOffset":13640,"byteLength":768,"target":34962,"byteStride":8},{"buffer":0,"byteOffset":14408,"byteLength":264,"target":34963}],"buffers":[{"byteLength":14672,"uri":"data:application/octet-stream;base64,"}],"accessors":[{"bufferView":0,"componentType":5126,"count":208,"max":[0.109375,0.4375,0.109375],"min":[-0.109375,0,-0.109375],"type":"VEC3"},{"bufferView":1,"componentType":5126,"count":208,"max":[1,1,1],"min":[-1,-1,-1],"type":"VEC3"},{"bufferView":2,"componentType":5126,"count":208,"max":[0.802762508392334,0.6770812273025513],"min":[0,0],"type":"VEC2"},{"bufferView":3,"componentType":5123,"count":276,"max":[207],"min":[0],"type":"SCALAR"},{"bufferView":4,"componentType":5126,"count":120,"max":[0.109375,0.38749998807907104,0.109375],"min":[-0.109375,0.05000000074505806,-0.109375],"type":"VEC3"},{"bufferView":5,"componentType":5126,"count":120,"max":[1,1,1],"min":[-1,-1,-1],"type":"VEC3"},{"bufferView":6,"componentType":5126,"count":120,"max":[0.71875,0.7749999761581421],"min":[0.0019249999895691872,0],"type":"VEC2"},{"bufferView":7,"componentType":5123,"count":144,"max":[119],"min":[0],"type":"SCALAR"},{"bufferView":8,"componentType":5126,"count":96,"max":[0.046875,0.1875,0.046875],"min":[-0.046875,0,-0.046875],"type":"VEC3"},{"bufferView":9,"componentType":5126,"count":96,"max":[1,1,1],"min":[-1,-1,-1],"type":"VEC3"},{"bufferView":10,"componentType":5126,"count":96,"max":[0.6085900068283081,0.625],"min":[0,0],"type":"VEC2"},{"bufferView":11,"componentType":5123,"count":132,"max":[95],"min":[0],"type":"SCALAR"}],"materials":[{"pbrMetallicRoughness":{"metallicFactor":0,"roughnessFactor":1,"baseColorTexture":{"index":0}},"alphaMode":"MASK","alphaCutoff":0.05,"doubleSided":true},{"pbrMetallicRoughness":{"metallicFactor":0,"roughnessFactor":1,"baseColorTexture":{"index":1}},"alphaMode":"MASK","alphaCutoff":0.05,"doubleSided":true},{"pbrMetallicRoughness":{"metallicFactor":0,"roughnessFactor":1,"baseColorTexture":{"index":2}},"alphaMode":"MASK","alphaCutoff":0.05,"doubleSided":true}],"textures":[{"sampler":0,"source":0,"name":"specimen"},{"sampler":1,"source":1,"name":"specimen_jat_1_glass_t"},{"sampler":2,"source":2,"name":"specimen_jar_1_sample_t"}],"samplers":[{"magFilter":9728,"minFilter":9728,"wrapS":33071,"wrapT":33071},{"magFilter":9728,"minFilter":9728,"wrapS":33071,"wrapT":33071},{"magFilter":9728,"minFilter":9728,"wrapS":33071,"wrapT":33071}],"images":[{"mimeType":"image/png","uri":"data:image/png;base64,"},{"mimeType":"image/png","uri":"data:image/png;base64,"},{"mimeType":"image/png","uri":"data:image/png;base64,"}],"meshes":[{"primitives":[{"mode":4,"attributes":{"POSITION":0,"NORMAL":1,"TEXCOORD_0":2},"indices":3,"material":0}]},{"primitives":[{"mode":4,"attributes":{"POSITION":4,"NORMAL":5,"TEXCOORD_0":6},"indices":7,"material":1}]},{"primitives":[{"mode":4,"attributes":{"POSITION":8,"NORMAL":9,"TEXCOORD_0":10},"indices":11,"material":2}]}]}