{"asset":{"version":"2.0","generator":"Blockbench 4.12.1 glTF exporter"},"scenes":[{"nodes":[1],"name":"blockbench_export"}],"scene":0,"nodes":[{"name":"cuboid","mesh":0},{"children":[0]}],"bufferViews":[{"buffer":0,"byteOffset":0,"byteLength":1560,"target":34962,"byteStride":12},{"buffer":0,"byteOffset":1560,"byteLength":1560,"target":34962,"byteStride":12},{"buffer":0,"byteOffset":3120,"byteLength":1040,"target":34962,"byteStride":8},{"buffer":0,"byteOffset":4160,"byteLength":384,"target":34963}],"buffers":[{"byteLength":4544,"uri":"data:application/octet-stream;base64,"}],"accessors":[{"bufferView":0,"componentType":5126,"count":130,"max":[0.015625,0.375,0.078125],"min":[-0.015625,-0.03125,-0.015625],"type":"VEC3"},{"bufferView":1,"componentType":5126,"count":130,"max":[1,0.9486833214759827,1],"min":[-1,-1,-1],"type":"VEC3"},{"bufferView":2,"componentType":5126,"count":130,"max":[0.5625,0.800000011920929],"min":[0,0],"type":"VEC2"},{"bufferView":3,"componentType":5123,"count":192,"max":[129],"min":[0],"type":"SCALAR"}],"materials":[{"pbrMetallicRoughness":{"metallicFactor":0,"roughnessFactor":1,"baseColorTexture":{"index":0}},"alphaMode":"MASK","alphaCutoff":0.05,"doubleSided":true}],"textures":[{"sampler":0,"source":0,"name":"wrench_t.png"}],"samplers":[{"magFilter":9728,"minFilter":9728,"wrapS":33071,"wrapT":33071}],"images":[{"mimeType":"image/png","uri":"data:image/png;base64,"}],"meshes":[{"primitives":[{"mode":4,"attributes":{"POSITION":0,"NORMAL":1,"TEXCOORD_0":2},"indices":3,"material":0}]}]}