{"asset":{"version":"2.0","generator":"Blockbench 4.12.1 glTF exporter"},"scenes":[{"nodes":[1],"name":"blockbench_export"}],"scene":0,"nodes":[{"rotation":[0,0,-0.7071067811865475,0.7071067811865476],"translation":[-0.21250000000000013,0.4500000000000002,0],"name":"sandbag","mesh":0},{"children":[0]}],"bufferViews":[{"buffer":0,"byteOffset":0,"byteLength":36864,"target":34962,"byteStride":12},{"buffer":0,"byteOffset":36864,"byteLength":36864,"target":34962,"byteStride":12},{"buffer":0,"byteOffset":73728,"byteLength":24576,"target":34962,"byteStride":8},{"buffer":0,"byteOffset":98304,"byteLength":8448,"target":34963}],"buffers":[{"byteLength":106752,"uri":"data:application/octet-stream;base64,"}],"accessors":[{"bufferView":0,"componentType":5126,"count":3072,"max":[0.453125,1.4249999523162842,0.12812499701976776],"min":[-0.5531250238418579,-1.125,-0.078125],"type":"VEC3"},{"bufferView":1,"componentType":5126,"count":3072,"max":[1,1,1],"min":[-1,-1,-1],"type":"VEC3"},{"bufferView":2,"componentType":5126,"count":3072,"max":[0.6443142294883728,0.5625],"min":[0,0],"type":"VEC2"},{"bufferView":3,"componentType":5123,"count":4224,"max":[3071],"min":[0],"type":"SCALAR"}],"materials":[{"pbrMetallicRoughness":{"metallicFactor":0,"roughnessFactor":1,"baseColorTexture":{"index":0}},"alphaMode":"MASK","alphaCutoff":0.05,"doubleSided":true}],"textures":[{"sampler":0,"source":0,"name":"sandbag_t"}],"samplers":[{"magFilter":9728,"minFilter":9728,"wrapS":33071,"wrapT":33071}],"images":[{"mimeType":"image/png","uri":"data:image/png;base64,"}],"meshes":[{"primitives":[{"mode":4,"attributes":{"POSITION":0,"NORMAL":1,"TEXCOORD_0":2},"indices":3,"material":0}]}]}