{"asset":{"version":"2.0","generator":"Blockbench 4.12.1 glTF exporter"},"scenes":[{"nodes":[5],"name":"blockbench_export"}],"scene":0,"nodes":[{"rotation":[-0.7071067811865475,0,0,0.7071067811865476],"name":"barrel","mesh":0},{"translation":[0,-0.08749999999999997,-0.05468749999999995],"name":"reciever","mesh":1},{"name":"sights","mesh":2},{"translation":[0,-0.1875,-0.1390625],"name":"magazine","mesh":3},{"translation":[0,-0.037500000000000006,-0.23750000000000004],"name":"stock","mesh":4},{"children":[0,1,2,3,4]}],"bufferViews":[{"buffer":0,"byteOffset":0,"byteLength":1296,"target":34962,"byteStride":12},{"buffer":0,"byteOffset":1296,"byteLength":1296,"target":34962,"byteStride":12},{"buffer":0,"byteOffset":2592,"byteLength":864,"target":34962,"byteStride":8},{"buffer":0,"byteOffset":3456,"byteLength":288,"target":34963},{"buffer":0,"byteOffset":3744,"byteLength":2400,"target":34962,"byteStride":12},{"buffer":0,"byteOffset":6144,"byteLength":2400,"target":34962,"byteStride":12},{"buffer":0,"byteOffset":8544,"byteLength":1600,"target":34962,"byteStride":8},{"buffer":0,"byteOffset":10144,"byteLength":600,"target":34963},{"buffer":0,"byteOffset":10744,"byteLength":1344,"target":34962,"byteStride":12},{"buffer":0,"byteOffset":12088,"byteLength":1344,"target":34962,"byteStride":12},{"buffer":0,"byteOffset":13432,"byteLength":896,"target":34962,"byteStride":8},{"buffer":0,"byteOffset":14328,"byteLength":336,"target":34963},{"buffer":0,"byteOffset":14664,"byteLength":288,"target":34962,"byteStride":12},{"buffer":0,"byteOffset":14952,"byteLength":288,"target":34962,"byteStride":12},{"buffer":0,"byteOffset":15240,"byteLength":192,"target":34962,"byteStride":8},{"buffer":0,"byteOffset":15432,"byteLength":72,"target":34963},{"buffer":0,"byteOffset":15504,"byteLength":2688,"target":34962,"byteStride":12},{"buffer":0,"byteOffset":18192,"byteLength":2688,"target":34962,"byteStride":12},{"buffer":0,"byteOffset":20880,"byteLength":1792,"target":34962,"byteStride":8},{"buffer":0,"byteOffset":22672,"byteLength":672,"target":34963}],"buffers":[{"byteLength":23344,"uri":"data:application/octet-stream;base64,"}],"accessors":[{"bufferView":0,"componentType":5126,"count":108,"max":[0.018042195588350296,0.30000001192092896,0.015625],"min":[-0.018042195588350296,0,-0.015625],"type":"VEC3"},{"bufferView":1,"componentType":5126,"count":108,"max":[0.8660253882408142,1,1],"min":[-0.8660253882408142,-1,-1],"type":"VEC3"},{"bufferView":2,"componentType":5126,"count":108,"max":[0.5625,0.75],"min":[0.0072395517490804195,0],"type":"VEC2"},{"bufferView":3,"componentType":5123,"count":144,"max":[107],"min":[0],"type":"SCALAR"},{"bufferView":4,"componentType":5126,"count":200,"max":[0.01875000074505806,0.08749999850988388,0.06093750149011612],"min":[-0.01875000074505806,-0.04843749850988388,-0.13906249403953552],"type":"VEC3"},{"bufferView":5,"componentType":5126,"count":200,"max":[1,1,1],"min":[-1,-1,-1],"type":"VEC3"},{"bufferView":6,"componentType":5126,"count":200,"max":[0.667187511920929,0.6875],"min":[0,0],"type":"VEC2"},{"bufferView":7,"componentType":5123,"count":300,"max":[199],"min":[0],"type":"SCALAR"},{"bufferView":8,"componentType":5126,"count":112,"max":[0.0062500000931322575,0.02500000037252903,-0.01875000074505806],"min":[-0.0062500000931322575,0.015625,-0.28125],"type":"VEC3"},{"bufferView":9,"componentType":5126,"count":112,"max":[1,1,1],"min":[-1,-1,-1],"type":"VEC3"},{"bufferView":10,"componentType":5126,"count":112,"max":[0.778124988079071,0.790149986743927],"min":[0,0],"type":"VEC2"},{"bufferView":11,"componentType":5123,"count":168,"max":[111],"min":[0],"type":"SCALAR"},{"bufferView":12,"componentType":5126,"count":24,"max":[0.010937499813735485,0.16875000298023224,3.469446951953614e-18],"min":[-0.010937499813735485,-0.03750000149011612,-0.03125],"type":"VEC3"},{"bufferView":13,"componentType":5126,"count":24,"max":[1,1,1],"min":[-1,-1,-1],"type":"VEC3"},{"bufferView":14,"componentType":5126,"count":24,"max":[0.625,0.875],"min":[0,0],"type":"VEC2"},{"bufferView":15,"componentType":5123,"count":36,"max":[23],"min":[0],"type":"SCALAR"},{"bufferView":16,"componentType":5126,"count":224,"max":[0.03125,0.03125,0.5],"min":[-0.03125,-0.11874999850988388,0.1875],"type":"VEC3"},{"bufferView":17,"componentType":5126,"count":224,"max":[1,1,1],"min":[-1,-1,-1],"type":"VEC3"},{"bufferView":18,"componentType":5126,"count":224,"max":[0.9312499761581421,0.8315374851226807],"min":[0.0000010034897286459454,0],"type":"VEC2"},{"bufferView":19,"componentType":5123,"count":336,"max":[223],"min":[0],"type":"SCALAR"}],"materials":[{"pbrMetallicRoughness":{"metallicFactor":0,"roughnessFactor":1,"baseColorTexture":{"index":0}},"alphaMode":"MASK","alphaCutoff":0.05,"doubleSided":true},{"pbrMetallicRoughness":{"metallicFactor":0,"roughnessFactor":1,"baseColorTexture":{"index":1}},"alphaMode":"MASK","alphaCutoff":0.05,"doubleSided":true},{"pbrMetallicRoughness":{"metallicFactor":0,"roughnessFactor":1,"baseColorTexture":{"index":2}},"alphaMode":"MASK","alphaCutoff":0.05,"doubleSided":true},{"pbrMetallicRoughness":{"metallicFactor":0,"roughnessFactor":1,"baseColorTexture":{"index":3}},"alphaMode":"MASK","alphaCutoff":0.05,"doubleSided":true},{"pbrMetallicRoughness":{"metallicFactor":0,"roughnessFactor":1,"baseColorTexture":{"index":4}},"alphaMode":"MASK","alphaCutoff":0.05,"doubleSided":true}],"textures":[{"sampler":0,"source":0,"name":"geo_o_barrel_t"},{"sampler":1,"source":1,"name":"geo_0_reciever_t"},{"sampler":2,"source":2,"name":"geo_0_sights_color"},{"sampler":3,"source":3,"name":"geo_o_magazine_t"},{"sampler":4,"source":4,"name":"geo_0_stock_t"}],"samplers":[{"magFilter":9728,"minFilter":9728,"wrapS":33071,"wrapT":33071},{"magFilter":9728,"minFilter":9728,"wrapS":33071,"wrapT":33071},{"magFilter":9728,"minFilter":9728,"wrapS":33071,"wrapT":33071},{"magFilter":9728,"minFilter":9728,"wrapS":33071,"wrapT":33071},{"magFilter":9728,"minFilter":9728,"wrapS":33071,"wrapT":33071}],"images":[{"mimeType":"image/png","uri":"data:image/png;base64,"},{"mimeType":"image/png","uri":"data:image/png;base64,"},{"mimeType":"image/png","uri":"data:image/png;base64,"},{"mimeType":"image/png","uri":"data:image/png;base64,"},{"mimeType":"image/png","uri":"data:image/png;base64,"}],"meshes":[{"primitives":[{"mode":4,"attributes":{"POSITION":0,"NORMAL":1,"TEXCOORD_0":2},"indices":3,"material":0}]},{"primitives":[{"mode":4,"attributes":{"POSITION":4,"NORMAL":5,"TEXCOORD_0":6},"indices":7,"material":1}]},{"primitives":[{"mode":4,"attributes":{"POSITION":8,"NORMAL":9,"TEXCOORD_0":10},"indices":11,"material":2}]},{"primitives":[{"mode":4,"attributes":{"POSITION":12,"NORMAL":13,"TEXCOORD_0":14},"indices":15,"material":3}]},{"primitives":[{"mode":4,"attributes":{"POSITION":16,"NORMAL":17,"TEXCOORD_0":18},"indices":19,"material":4}]}]}