{"asset":{"version":"2.0","generator":"Blockbench 4.12.1 glTF exporter"},"scenes":[{"nodes":[5],"name":"blockbench_export"}],"scene":0,"nodes":[{"translation":[2.1875,0.5,-0.25],"name":"computers","mesh":0},{"translation":[-1.6875,0,-0.5],"name":"input_tanks","mesh":1},{"translation":[0.9375,0,-0.9375],"name":"pipes","mesh":2},{"name":"tank_decorations","mesh":3},{"name":"tank","mesh":4},{"children":[0,1,2,3,4]}],"bufferViews":[{"buffer":0,"byteOffset":0,"byteLength":1152,"target":34962,"byteStride":12},{"buffer":0,"byteOffset":1152,"byteLength":1152,"target":34962,"byteStride":12},{"buffer":0,"byteOffset":2304,"byteLength":768,"target":34962,"byteStride":8},{"buffer":0,"byteOffset":3072,"byteLength":288,"target":34963},{"buffer":0,"byteOffset":3360,"byteLength":2880,"target":34962,"byteStride":12},{"buffer":0,"byteOffset":6240,"byteLength":2880,"target":34962,"byteStride":12},{"buffer":0,"byteOffset":9120,"byteLength":1920,"target":34962,"byteStride":8},{"buffer":0,"byteOffset":11040,"byteLength":576,"target":34963},{"buffer":0,"byteOffset":11616,"byteLength":6336,"target":34962,"byteStride":12},{"buffer":0,"byteOffset":17952,"byteLength":6336,"target":34962,"byteStride":12},{"buffer":0,"byteOffset":24288,"byteLength":4224,"target":34962,"byteStride":8},{"buffer":0,"byteOffset":28512,"byteLength":1344,"target":34963},{"buffer":0,"byteOffset":29856,"byteLength":5088,"target":34962,"byteStride":12},{"buffer":0,"byteOffset":34944,"byteLength":5088,"target":34962,"byteStride":12},{"buffer":0,"byteOffset":40032,"byteLength":3392,"target":34962,"byteStride":8},{"buffer":0,"byteOffset":43424,"byteLength":1272,"target":34963},{"buffer":0,"byteOffset":44696,"byteLength":1440,"target":34962,"byteStride":12},{"buffer":0,"byteOffset":46136,"byteLength":1440,"target":34962,"byteStride":12},{"buffer":0,"byteOffset":47576,"byteLength":960,"target":34962,"byteStride":8},{"buffer":0,"byteOffset":48536,"byteLength":288,"target":34963}],"buffers":[{"byteLength":48824,"uri":"data:application/octet-stream;base64,"}],"accessors":[{"bufferView":0,"componentType":5126,"count":96,"max":[0.59375,1.75,1.9375],"min":[-4.78125,-0.5,-1.1945898532867432],"type":"VEC3"},{"bufferView":1,"componentType":5126,"count":96,"max":[1,1,1],"min":[-1,-1,-1],"type":"VEC3"},{"bufferView":2,"componentType":5126,"count":96,"max":[0.5625,0.60546875],"min":[0,0],"type":"VEC2"},{"bufferView":3,"componentType":5123,"count":144,"max":[95],"min":[0],"type":"SCALAR"},{"bufferView":4,"componentType":5126,"count":240,"max":[0.875,1.25,0.9375],"min":[-0.375,0,-0.375],"type":"VEC3"},{"bufferView":5,"componentType":5126,"count":240,"max":[1,1,1],"min":[-1,-1,-1],"type":"VEC3"},{"bufferView":6,"componentType":5126,"count":240,"max":[0.048528581857681274,0.15625],"min":[0,0],"type":"VEC2"},{"bufferView":7,"componentType":5123,"count":288,"max":[239],"min":[0],"type":"SCALAR"},{"bufferView":8,"componentType":5126,"count":528,"max":[2.5572595596313477,2.5,2.702003240585327],"min":[-2.0864179134368896,0,-0.125],"type":"VEC3"},{"bufferView":9,"componentType":5126,"count":528,"max":[1,1,1],"min":[-1,-1,-1],"type":"VEC3"},{"bufferView":10,"componentType":5126,"count":528,"max":[0.671875,0.9140625],"min":[0,0],"type":"VEC2"},{"bufferView":11,"componentType":5123,"count":672,"max":[527],"min":[0],"type":"SCALAR"},{"bufferView":12,"componentType":5126,"count":424,"max":[0.78125,2.5,0.78125],"min":[-0.78125,0,-1.125],"type":"VEC3"},{"bufferView":13,"componentType":5126,"count":424,"max":[1,1,1],"min":[-1,-1,-1],"type":"VEC3"},{"bufferView":14,"componentType":5126,"count":424,"max":[0.6820172071456909,0.6484375],"min":[0.0016031250124797225,0],"type":"VEC2"},{"bufferView":15,"componentType":5123,"count":636,"max":[423],"min":[0],"type":"SCALAR"},{"bufferView":16,"componentType":5126,"count":120,"max":[0.75,2.5,0.75],"min":[-0.75,0,-0.75],"type":"VEC3"},{"bufferView":17,"componentType":5126,"count":120,"max":[1,1,1],"min":[-1,-1,-1],"type":"VEC3"},{"bufferView":18,"componentType":5126,"count":120,"max":[0.515625,0.6328125],"min":[0.0008109374903142452,0],"type":"VEC2"},{"bufferView":19,"componentType":5123,"count":144,"max":[119],"min":[0],"type":"SCALAR"}],"materials":[{"pbrMetallicRoughness":{"metallicFactor":0,"roughnessFactor":1,"baseColorTexture":{"index":0}},"alphaMode":"MASK","alphaCutoff":0.05,"doubleSided":true},{"pbrMetallicRoughness":{"metallicFactor":0,"roughnessFactor":1},"alphaMode":"MASK","alphaCutoff":0.05,"doubleSided":true},{"pbrMetallicRoughness":{"metallicFactor":0,"roughnessFactor":1,"baseColorTexture":{"index":1}},"alphaMode":"MASK","alphaCutoff":0.05,"doubleSided":true},{"pbrMetallicRoughness":{"metallicFactor":0,"roughnessFactor":1,"baseColorTexture":{"index":2}},"alphaMode":"MASK","alphaCutoff":0.05,"doubleSided":true},{"pbrMetallicRoughness":{"metallicFactor":0,"roughnessFactor":1,"baseColorTexture":{"index":3}},"alphaMode":"MASK","alphaCutoff":0.05,"doubleSided":true}],"textures":[{"sampler":0,"source":0,"name":"clone_vat_computers_color.png"},{"sampler":1,"source":1,"name":"clone_vat_pipes_color"},{"sampler":2,"source":2,"name":"clone_vat_tank_decoration_color"},{"sampler":3,"source":3,"name":"clone_vat_tank_color.png"}],"samplers":[{"magFilter":9728,"minFilter":9728,"wrapS":33071,"wrapT":33071},{"magFilter":9728,"minFilter":9728,"wrapS":33071,"wrapT":33071},{"magFilter":9728,"minFilter":9728,"wrapS":33071,"wrapT":33071},{"magFilter":9728,"minFilter":9728,"wrapS":33071,"wrapT":33071}],"images":[{"mimeType":"image/png","uri":"data:image/png;base64,"},{"mimeType":"image/png","uri":"data:image/png;base64,"},{"mimeType":"image/png","uri":"data:image/png;base64,"},{"mimeType":"image/png","uri":"data:image/png;base64,"}],"meshes":[{"primitives":[{"mode":4,"attributes":{"POSITION":0,"NORMAL":1,"TEXCOORD_0":2},"indices":3,"material":0}]},{"primitives":[{"mode":4,"attributes":{"POSITION":4,"NORMAL":5,"TEXCOORD_0":6},"indices":7,"material":1}]},{"primitives":[{"mode":4,"attributes":{"POSITION":8,"NORMAL":9,"TEXCOORD_0":10},"indices":11,"material":2}]},{"primitives":[{"mode":4,"attributes":{"POSITION":12,"NORMAL":13,"TEXCOORD_0":14},"indices":15,"material":3}]},{"primitives":[{"mode":4,"attributes":{"POSITION":16,"NORMAL":17,"TEXCOORD_0":18},"indices":19,"material":4}]}]}