{"asset":{"version":"2.0","generator":"Blockbench 4.12.1 glTF exporter"},"scenes":[{"nodes":[1],"name":"blockbench_export"}],"scene":0,"nodes":[{"name":"energy_cell","mesh":0},{"children":[0]}],"bufferViews":[{"buffer":0,"byteOffset":0,"byteLength":4800,"target":34962,"byteStride":12},{"buffer":0,"byteOffset":4800,"byteLength":4800,"target":34962,"byteStride":12},{"buffer":0,"byteOffset":9600,"byteLength":3200,"target":34962,"byteStride":8},{"buffer":0,"byteOffset":12800,"byteLength":1152,"target":34963}],"buffers":[{"byteLength":13952,"uri":"data:application/octet-stream;base64,"}],"accessors":[{"bufferView":0,"componentType":5126,"count":400,"max":[0.05312500149011612,0.20000000298023224,0.05312500149011612],"min":[-0.05312500149011612,0,-0.05312500149011612],"type":"VEC3"},{"bufferView":1,"componentType":5126,"count":400,"max":[1,1,1],"min":[-1,-1,-1],"type":"VEC3"},{"bufferView":2,"componentType":5126,"count":400,"max":[0.8023561239242554,0.9308333396911621],"min":[0.01805536448955536,0.023633480072021484],"type":"VEC2"},{"bufferView":3,"componentType":5123,"count":576,"max":[399],"min":[0],"type":"SCALAR"}],"materials":[{"pbrMetallicRoughness":{"metallicFactor":0,"roughnessFactor":1,"baseColorTexture":{"index":0}},"alphaMode":"MASK","alphaCutoff":0.05,"doubleSided":true}],"textures":[{"sampler":0,"source":0,"name":"energy_cell_t_color"}],"samplers":[{"magFilter":9728,"minFilter":9728,"wrapS":33071,"wrapT":33071}],"images":[{"mimeType":"image/png","uri":"data:image/png;base64,"}],"meshes":[{"primitives":[{"mode":4,"attributes":{"POSITION":0,"NORMAL":1,"TEXCOORD_0":2},"indices":3,"material":0}]}]}