{"asset":{"version":"2.0","generator":"Blockbench 4.12.1 glTF exporter"},"scenes":[{"nodes":[10],"name":"blockbench_export"}],"scene":0,"nodes":[{"name":"stock","mesh":0},{"translation":[0,-0.05625,0.15625],"name":"reciever","mesh":1},{"translation":[0,-0.11875,0.15781250000000005],"name":"grip","mesh":2},{"translation":[0,-0.26249999999999996,0],"name":"energy_cell","mesh":3},{"translation":[0,-0.0625,-0.30625],"name":"frame","mesh":4},{"rotation":[-0.7071067811865475,0,0,0.7071067811865476],"name":"emitter","mesh":5},{"translation":[0,0.025,-0.06875],"name":"barrel","children":[4,5]},{"name":"front_sight","mesh":6},{"translation":[0,0,0.5],"name":"rear_sight","mesh":7},{"translation":[0,0.05625,-0.375],"name":"sights","children":[7,8]},{"children":[0,1,2,3,6,9]}],"bufferViews":[{"buffer":0,"byteOffset":0,"byteLength":2688,"target":34962,"byteStride":12},{"buffer":0,"byteOffset":2688,"byteLength":2688,"target":34962,"byteStride":12},{"buffer":0,"byteOffset":5376,"byteLength":1792,"target":34962,"byteStride":8},{"buffer":0,"byteOffset":7168,"byteLength":672,"target":34963},{"buffer":0,"byteOffset":7840,"byteLength":2496,"target":34962,"byteStride":12},{"buffer":0,"byteOffset":10336,"byteLength":2496,"target":34962,"byteStride":12},{"buffer":0,"byteOffset":12832,"byteLength":1664,"target":34962,"byteStride":8},{"buffer":0,"byteOffset":14496,"byteLength":600,"target":34963},{"buffer":0,"byteOffset":15096,"byteLength":480,"target":34962,"byteStride":12},{"buffer":0,"byteOffset":15576,"byteLength":480,"target":34962,"byteStride":12},{"buffer":0,"byteOffset":16056,"byteLength":320,"target":34962,"byteStride":8},{"buffer":0,"byteOffset":16376,"byteLength":120,"target":34963},{"buffer":0,"byteOffset":16496,"byteLength":4800,"target":34962,"byteStride":12},{"buffer":0,"byteOffset":21296,"byteLength":4800,"target":34962,"byteStride":12},{"buffer":0,"byteOffset":26096,"byteLength":3200,"target":34962,"byteStride":8},{"buffer":0,"byteOffset":29296,"byteLength":1152,"target":34963},{"buffer":0,"byteOffset":30448,"byteLength":288,"target":34962,"byteStride":12},{"buffer":0,"byteOffset":30736,"byteLength":288,"target":34962,"byteStride":12},{"buffer":0,"byteOffset":31024,"byteLength":192,"target":34962,"byteStride":8},{"buffer":0,"byteOffset":31216,"byteLength":72,"target":34963},{"buffer":0,"byteOffset":31288,"byteLength":4032,"target":34962,"byteStride":12},{"buffer":0,"byteOffset":35320,"byteLength":4032,"target":34962,"byteStride":12},{"buffer":0,"byteOffset":39352,"byteLength":2688,"target":34962,"byteStride":8},{"buffer":0,"byteOffset":42040,"byteLength":960,"target":34963},{"buffer":0,"byteOffset":43000,"byteLength":672,"target":34962,"byteStride":12},{"buffer":0,"byteOffset":43672,"byteLength":672,"target":34962,"byteStride":12},{"buffer":0,"byteOffset":44344,"byteLength":448,"target":34962,"byteStride":8},{"buffer":0,"byteOffset":44792,"byteLength":168,"target":34963},{"buffer":0,"byteOffset":44960,"byteLength":1056,"target":34962,"byteStride":12},{"buffer":0,"byteOffset":46016,"byteLength":1056,"target":34962,"byteStride":12},{"buffer":0,"byteOffset":47072,"byteLength":704,"target":34962,"byteStride":8},{"buffer":0,"byteOffset":47776,"byteLength":264,"target":34963}],"buffers":[{"byteLength":48040,"uri":"data:application/octet-stream;base64,"}],"accessors":[{"bufferView":0,"componentType":5126,"count":224,"max":[0.03125,0.03125,0.5],"min":[-0.03125,-0.11874999850988388,0.1875],"type":"VEC3"},{"bufferView":1,"componentType":5126,"count":224,"max":[1,1,1],"min":[-1,-1,-1],"type":"VEC3"},{"bufferView":2,"componentType":5126,"count":224,"max":[0.7143388986587524,1],"min":[0.020891625434160233,0.056086719036102295],"type":"VEC2"},{"bufferView":3,"componentType":5123,"count":336,"max":[223],"min":[0],"type":"SCALAR"},{"bufferView":4,"componentType":5126,"count":208,"max":[0.05624999850988388,0.11874999850988388,0.03125],"min":[-0.05624999850988388,-0.02500000037252903,-0.22812500596046448],"type":"VEC3"},{"bufferView":5,"componentType":5126,"count":208,"max":[1,1,1],"min":[-1,-1,-1],"type":"VEC3"},{"bufferView":6,"componentType":5126,"count":208,"max":[0.788281261920929,0.8125],"min":[0,0],"type":"VEC2"},{"bufferView":7,"componentType":5123,"count":300,"max":[207],"min":[0],"type":"SCALAR"},{"bufferView":8,"componentType":5126,"count":40,"max":[0.01718750037252903,0.0625,0.04843749850988388],"min":[-0.01718750037252903,-0.0234375,-0.015625],"type":"VEC3"},{"bufferView":9,"componentType":5126,"count":40,"max":[1,1,1],"min":[-1,-0.9728062152862549,-1],"type":"VEC3"},{"bufferView":10,"componentType":5126,"count":40,"max":[0.11874999850988388,0.7225375175476074],"min":[0.015625,0.5859375],"type":"VEC2"},{"bufferView":11,"componentType":5123,"count":60,"max":[39],"min":[0],"type":"SCALAR"},{"bufferView":12,"componentType":5126,"count":400,"max":[0.05312500149011612,0.20000000298023224,0.05312500149011612],"min":[-0.05312500149011612,0,-0.05312500149011612],"type":"VEC3"},{"bufferView":13,"componentType":5126,"count":400,"max":[1,1,1],"min":[-1,-1,-1],"type":"VEC3"},{"bufferView":14,"componentType":5126,"count":400,"max":[0.8023561239242554,0.9308333396911621],"min":[0.01805536448955536,0.023633480072021484],"type":"VEC2"},{"bufferView":15,"componentType":5123,"count":576,"max":[399],"min":[0],"type":"SCALAR"},{"bufferView":16,"componentType":5126,"count":24,"max":[0.03437500074505806,0.02500000037252903,0.3062500059604645],"min":[-0.03437500074505806,0,-0.06875000149011612],"type":"VEC3"},{"bufferView":17,"componentType":5126,"count":24,"max":[1,1,1],"min":[-1,-1,-1],"type":"VEC3"},{"bufferView":18,"componentType":5126,"count":24,"max":[0.33203125,0.79296875],"min":[0.01953125,0.57421875],"type":"VEC2"},{"bufferView":19,"componentType":5123,"count":36,"max":[23],"min":[0],"type":"SCALAR"},{"bufferView":20,"componentType":5126,"count":336,"max":[0.03702424839138985,0.375,0.03702424839138985],"min":[-0.03702424839138985,0,-0.03702424839138985],"type":"VEC3"},{"bufferView":21,"componentType":5126,"count":336,"max":[1,1,1],"min":[-1,-1,-1],"type":"VEC3"},{"bufferView":22,"componentType":5126,"count":336,"max":[0.5625,0.53125],"min":[0,0],"type":"VEC2"},{"bufferView":23,"componentType":5123,"count":480,"max":[335],"min":[0],"type":"SCALAR"},{"bufferView":24,"componentType":5126,"count":56,"max":[0.0031250000465661287,0.02500000037252903,0.3062500059604645],"min":[-0.0031250000465661287,0,-0.06875000149011612],"type":"VEC3"},{"bufferView":25,"componentType":5126,"count":56,"max":[1,1,1],"min":[-1,-1,-1],"type":"VEC3"},{"bufferView":26,"componentType":5126,"count":56,"max":[0.8031250238418579,0.3796374797821045],"min":[0.034488532692193985,0],"type":"VEC2"},{"bufferView":27,"componentType":5123,"count":84,"max":[55],"min":[0],"type":"SCALAR"},{"bufferView":28,"componentType":5126,"count":88,"max":[0.015625,0.02500000037252903,0.046875],"min":[-0.015625,0,0.02187499962747097],"type":"VEC3"},{"bufferView":29,"componentType":5126,"count":88,"max":[1,1,1],"min":[-1,-1,-1],"type":"VEC3"},{"bufferView":30,"componentType":5126,"count":88,"max":[0.675000011920929,0.925000011920929],"min":[0.125,0.125],"type":"VEC2"},{"bufferView":31,"componentType":5123,"count":132,"max":[87],"min":[0],"type":"SCALAR"}],"materials":[{"pbrMetallicRoughness":{"metallicFactor":0,"roughnessFactor":1,"baseColorTexture":{"index":0}},"alphaMode":"MASK","alphaCutoff":0.05,"doubleSided":true},{"pbrMetallicRoughness":{"metallicFactor":0,"roughnessFactor":1,"baseColorTexture":{"index":1}},"alphaMode":"MASK","alphaCutoff":0.05,"doubleSided":true},{"pbrMetallicRoughness":{"metallicFactor":0,"roughnessFactor":1,"baseColorTexture":{"index":2}},"alphaMode":"MASK","alphaCutoff":0.05,"doubleSided":true},{"pbrMetallicRoughness":{"metallicFactor":0,"roughnessFactor":1,"baseColorTexture":{"index":3}},"alphaMode":"MASK","alphaCutoff":0.05,"doubleSided":true},{"pbrMetallicRoughness":{"metallicFactor":0,"roughnessFactor":1,"baseColorTexture":{"index":4}},"alphaMode":"MASK","alphaCutoff":0.05,"doubleSided":true},{"pbrMetallicRoughness":{"metallicFactor":0,"roughnessFactor":1,"baseColorTexture":{"index":5}},"alphaMode":"MASK","alphaCutoff":0.05,"doubleSided":true},{"pbrMetallicRoughness":{"metallicFactor":0,"roughnessFactor":1,"baseColorTexture":{"index":6}},"alphaMode":"MASK","alphaCutoff":0.05,"doubleSided":true}],"textures":[{"sampler":0,"source":0,"name":"laser_rifle_stock_t.png"},{"sampler":1,"source":1,"name":"laser_rifle_reciever_t.png"},{"sampler":2,"source":2,"name":"cdr_t.png"},{"sampler":3,"source":3,"name":"energy_cell_t_color.png"},{"sampler":4,"source":4,"name":"laser_rifle_barrel_t.png"},{"sampler":5,"source":5,"name":"laser_rifle_front_sight_color.png"},{"sampler":6,"source":6,"name":"laser_rifle_rear_sight_t.png"}],"samplers":[{"magFilter":9728,"minFilter":9728,"wrapS":33071,"wrapT":33071},{"magFilter":9728,"minFilter":9728,"wrapS":33071,"wrapT":33071},{"magFilter":9728,"minFilter":9728,"wrapS":33071,"wrapT":33071},{"magFilter":9728,"minFilter":9728,"wrapS":33071,"wrapT":33071},{"magFilter":9728,"minFilter":9728,"wrapS":33071,"wrapT":33071},{"magFilter":9728,"minFilter":9728,"wrapS":33071,"wrapT":33071},{"magFilter":9728,"minFilter":9728,"wrapS":33071,"wrapT":33071}],"images":[{"mimeType":"image/png","uri":"data:image/png;base64,"},{"mimeType":"image/png","uri":"data:image/png;base64,"},{"mimeType":"image/png","uri":"data:image/png;base64,"},{"mimeType":"image/png","uri":"data:image/png;base64,"},{"mimeType":"image/png","uri":"data:image/png;base64,"},{"mimeType":"image/png","uri":"data:image/png;base64,"},{"mimeType":"image/png","uri":"data:image/png;base64,"}],"meshes":[{"primitives":[{"mode":4,"attributes":{"POSITION":0,"NORMAL":1,"TEXCOORD_0":2},"indices":3,"material":0}]},{"primitives":[{"mode":4,"attributes":{"POSITION":4,"NORMAL":5,"TEXCOORD_0":6},"indices":7,"material":1}]},{"primitives":[{"mode":4,"attributes":{"POSITION":8,"NORMAL":9,"TEXCOORD_0":10},"indices":11,"material":2}]},{"primitives":[{"mode":4,"attributes":{"POSITION":12,"NORMAL":13,"TEXCOORD_0":14},"indices":15,"material":3}]},{"primitives":[{"mode":4,"attributes":{"POSITION":16,"NORMAL":17,"TEXCOORD_0":18},"indices":19,"material":4}]},{"primitives":[{"mode":4,"attributes":{"POSITION":20,"NORMAL":21,"TEXCOORD_0":22},"indices":23,"material":4}]},{"primitives":[{"mode":4,"attributes":{"POSITION":24,"NORMAL":25,"TEXCOORD_0":26},"indices":27,"material":5}]},{"primitives":[{"mode":4,"attributes":{"POSITION":28,"NORMAL":29,"TEXCOORD_0":30},"indices":31,"material":6}]}]}