{"asset":{"version":"2.0","generator":"Blockbench 4.12.1 glTF exporter"},"scenes":[{"nodes":[37],"name":"blockbench_export"}],"scene":0,"nodes":[{"translation":[0.75,0,-1],"scale":[0.021033210332103324,0.021033210332103324,0.021033210332103324],"name":"null_object"},{"translation":[0,-0.10000000000000009,0],"name":"hips","mesh":0},{"name":"chest","mesh":1},{"translation":[0,0.006250000000000089,0],"name":"neck","mesh":2},{"translation":[8.391724815037804e-17,-0.024999999999999467,-2.7755575615628914e-17],"name":"head","mesh":3},{"translation":[-0.00013844599301025644,0.12613103391084368,0.009932675559865784],"name":"Head","children":[4]},{"translation":[0,0.43125000000000013,0],"name":"Neck","children":[3,5]},{"translation":[-0.18750000000000006,-0.375,0],"name":"left_upper_arm","mesh":4},{"translation":[-0.18749999999999994,-0.375,0],"name":"left_lower_arm","mesh":5},{"translation":[-0.1499999999999999,-0.375,0],"name":"left_hand","mesh":6},{"translation":[-0.35000000000000003,0,0],"name":"LeftHand","children":[9]},{"translation":[-0.3125000000000001,0,0],"name":"LeftLowerArm","children":[8,10]},{"translation":[-0.06874999999999995,0.012499999999999734,0],"name":"LeftUpperArm","children":[7,11]},{"translation":[-0.05625,0.4250000000000005,0],"name":"LeftShoulder","children":[12]},{"translation":[0.18750000000000006,-0.375,0],"name":"right_upper_arm","mesh":7},{"translation":[0.18749999999999994,-0.375,0],"name":"right_lower_arm","mesh":8},{"translation":[0.1499999999999999,-0.375,0],"name":"right_hand","mesh":9},{"scale":[0.02214022140221402,0.02214022140221402,0.02214022140221402],"name":"locator"},{"translation":[-0.7875000000000001,-1.5625,0],"name":"locator","children":[17]},{"rotation":[0.25388528057946663,-0.12795818141205118,0.415698725645697,0.8639233401241976],"translation":[0.35000000000000003,0,0],"name":"RightHand","children":[16,18]},{"rotation":[3.469446951953614e-18,0.10920907885321442,-0.1708033466852806,0.9792341874429937],"translation":[0.3125000000000001,0,0],"name":"RightLowerArm","children":[15,19]},{"rotation":[1.0842021724855044e-19,0.008577415078442691,-0.03874547110473957,0.9992122979724799],"translation":[0.06874999999999995,0.012499999999999734,0],"name":"RightUpperArm","children":[14,20]},{"rotation":[-0.0006623709823286475,0.003643040402807637,0.054428402732384064,0.9985108104058298],"translation":[0.05625,0.4250000000000005,0],"name":"RightShoulder","children":[21]},{"rotation":[-0.0002648169763456773,0.00003504930569281019,-0.028105781999333845,0.9996049187862779],"translation":[0,0.1499999999999997,0],"name":"Spine","children":[2,6,13,22]},{"translation":[2.7755575615628914e-17,-0.5937499999999999,0],"name":"left_upper_leg","mesh":10},{"translation":[2.7755575615628914e-17,-0.5937499999999999,0],"name":"left_lower_leg","mesh":11},{"translation":[5.551115123125783e-17,-0.3875,-0.06875],"name":"left_foot","mesh":12},{"translation":[0,-0.4562499999999999,0.00625],"name":"LeftFoot","children":[26]},{"translation":[0,-0.4375,0],"name":"LeftLowerLeg","children":[25,27]},{"translation":[-0.10625000000000001,-0.0062500000000002,0],"name":"LeftUpperLeg","children":[24,28]},{"translation":[-2.7755575615628914e-17,-0.5937499999999999,0],"name":"right_upper_leg","mesh":13},{"translation":[-2.7755575615628914e-17,-0.5937499999999999,0],"name":"right_lower_leg","mesh":14},{"translation":[-5.551115123125783e-17,-0.3875,-0.06875],"name":"right_foot","mesh":15},{"translation":[0,-0.4562499999999999,0.00625],"name":"RightFoot","children":[32]},{"translation":[0,-0.4375,0],"name":"RightLowerLeg","children":[31,33]},{"translation":[0.10625000000000001,-0.0062500000000002,0],"name":"RightUpperLeg","children":[30,34]},{"rotation":[-0.00001595056979336638,1.3234889800848443e-23,-0.005576439963935537,0.9999844514105747],"translation":[0,0.9750000000000001,0],"name":"Hips","children":[1,23,29,35]},{"children":[0,36]}],"bufferViews":[{"buffer":0,"byteOffset":0,"byteLength":3840,"target":34962,"byteStride":12},{"buffer":0,"byteOffset":3840,"byteLength":3840,"target":34962,"byteStride":12},{"buffer":0,"byteOffset":7680,"byteLength":2560,"target":34962,"byteStride":8},{"buffer":0,"byteOffset":10240,"byteLength":960,"target":34963},{"buffer":0,"byteOffset":11200,"byteLength":10944,"target":34962,"byteStride":12},{"buffer":0,"byteOffset":22144,"byteLength":10944,"target":34962,"byteStride":12},{"buffer":0,"byteOffset":33088,"byteLength":7296,"target":34962,"byteStride":8},{"buffer":0,"byteOffset":40384,"byteLength":2736,"target":34963},{"buffer":0,"byteOffset":43120,"byteLength":1152,"target":34962,"byteStride":12},{"buffer":0,"byteOffset":44272,"byteLength":1152,"target":34962,"byteStride":12},{"buffer":0,"byteOffset":45424,"byteLength":768,"target":34962,"byteStride":8},{"buffer":0,"byteOffset":46192,"byteLength":288,"target":34963},{"buffer":0,"byteOffset":46480,"byteLength":15528,"target":34962,"byteStride":12},{"buffer":0,"byteOffset":62008,"byteLength":15528,"target":34962,"byteStride":12},{"buffer":0,"byteOffset":77536,"byteLength":10352,"target":34962,"byteStride":8},{"buffer":0,"byteOffset":87888,"byteLength":3792,"target":34963},{"buffer":0,"byteOffset":91680,"byteLength":2688,"target":34962,"byteStride":12},{"buffer":0,"byteOffset":94368,"byteLength":2688,"target":34962,"byteStride":12},{"buffer":0,"byteOffset":97056,"byteLength":1792,"target":34962,"byteStride":8},{"buffer":0,"byteOffset":98848,"byteLength":672,"target":34963},{"buffer":0,"byteOffset":99520,"byteLength":2688,"target":34962,"byteStride":12},{"buffer":0,"byteOffset":102208,"byteLength":2688,"target":34962,"byteStride":12},{"buffer":0,"byteOffset":104896,"byteLength":1792,"target":34962,"byteStride":8},{"buffer":0,"byteOffset":106688,"byteLength":672,"target":34963},{"buffer":0,"byteOffset":107360,"byteLength":2880,"target":34962,"byteStride":12},{"buffer":0,"byteOffset":110240,"byteLength":2880,"target":34962,"byteStride":12},{"buffer":0,"byteOffset":113120,"byteLength":1920,"target":34962,"byteStride":8},{"buffer":0,"byteOffset":115040,"byteLength":720,"target":34963},{"buffer":0,"byteOffset":115760,"byteLength":2688,"target":34962,"byteStride":12},{"buffer":0,"byteOffset":118448,"byteLength":2688,"target":34962,"byteStride":12},{"buffer":0,"byteOffset":121136,"byteLength":1792,"target":34962,"byteStride":8},{"buffer":0,"byteOffset":122928,"byteLength":672,"target":34963},{"buffer":0,"byteOffset":123600,"byteLength":2688,"target":34962,"byteStride":12},{"buffer":0,"byteOffset":126288,"byteLength":2688,"target":34962,"byteStride":12},{"buffer":0,"byteOffset":128976,"byteLength":1792,"target":34962,"byteStride":8},{"buffer":0,"byteOffset":130768,"byteLength":672,"target":34963},{"buffer":0,"byteOffset":131440,"byteLength":2880,"target":34962,"byteStride":12},{"buffer":0,"byteOffset":134320,"byteLength":2880,"target":34962,"byteStride":12},{"buffer":0,"byteOffset":137200,"byteLength":1920,"target":34962,"byteStride":8},{"buffer":0,"byteOffset":139120,"byteLength":720,"target":34963},{"buffer":0,"byteOffset":139840,"byteLength":3456,"target":34962,"byteStride":12},{"buffer":0,"byteOffset":143296,"byteLength":3456,"target":34962,"byteStride":12},{"buffer":0,"byteOffset":146752,"byteLength":2304,"target":34962,"byteStride":8},{"buffer":0,"byteOffset":149056,"byteLength":864,"target":34963},{"buffer":0,"byteOffset":149920,"byteLength":3456,"target":34962,"byteStride":12},{"buffer":0,"byteOffset":153376,"byteLength":3456,"target":34962,"byteStride":12},{"buffer":0,"byteOffset":156832,"byteLength":2304,"target":34962,"byteStride":8},{"buffer":0,"byteOffset":159136,"byteLength":864,"target":34963},{"buffer":0,"byteOffset":160000,"byteLength":2808,"target":34962,"byteStride":12},{"buffer":0,"byteOffset":162808,"byteLength":2808,"target":34962,"byteStride":12},{"buffer":0,"byteOffset":165616,"byteLength":1872,"target":34962,"byteStride":8},{"buffer":0,"byteOffset":167488,"byteLength":696,"target":34963},{"buffer":0,"byteOffset":168184,"byteLength":3456,"target":34962,"byteStride":12},{"buffer":0,"byteOffset":171640,"byteLength":3456,"target":34962,"byteStride":12},{"buffer":0,"byteOffset":175096,"byteLength":2304,"target":34962,"byteStride":8},{"buffer":0,"byteOffset":177400,"byteLength":864,"target":34963},{"buffer":0,"byteOffset":178264,"byteLength":3456,"target":34962,"byteStride":12},{"buffer":0,"byteOffset":181720,"byteLength":3456,"target":34962,"byteStride":12},{"buffer":0,"byteOffset":185176,"byteLength":2304,"target":34962,"byteStride":8},{"buffer":0,"byteOffset":187480,"byteLength":864,"target":34963},{"buffer":0,"byteOffset":188344,"byteLength":2808,"target":34962,"byteStride":12},{"buffer":0,"byteOffset":191152,"byteLength":2808,"target":34962,"byteStride":12},{"buffer":0,"byteOffset":193960,"byteLength":1872,"target":34962,"byteStride":8},{"buffer":0,"byteOffset":195832,"byteLength":696,"target":34963},{"buffer":0,"byteOffset":196528,"byteLength":4},{"buffer":0,"byteOffset":196532,"byteLength":16},{"buffer":0,"byteOffset":196548,"byteLength":4},{"buffer":0,"byteOffset":196552,"byteLength":16},{"buffer":0,"byteOffset":196568,"byteLength":4},{"buffer":0,"byteOffset":196572,"byteLength":16},{"buffer":0,"byteOffset":196588,"byteLength":4},{"buffer":0,"byteOffset":196592,"byteLength":16},{"buffer":0,"byteOffset":196608,"byteLength":4},{"buffer":0,"byteOffset":196612,"byteLength":16},{"buffer":0,"byteOffset":196628,"byteLength":4},{"buffer":0,"byteOffset":196632,"byteLength":16}],"buffers":[{"byteLength":196648,"uri":"data:application/octet-stream;base64,"}],"accessors":[{"bufferView":0,"componentType":5126,"count":320,"max":[0.18125000596046448,0.25,0.13124999403953552],"min":[-0.18125000596046448,0.012500000186264515,-0.15625],"type":"VEC3"},{"bufferView":1,"componentType":5126,"count":320,"max":[0.9847835302352905,1,0.9987523555755615],"min":[-0.9847835302352905,-0.9593209624290466,-0.9743731021881104],"type":"VEC3"},{"bufferView":2,"componentType":5126,"count":320,"max":[0.5,0.5],"min":[0,0],"type":"VEC2"},{"bufferView":3,"componentType":5123,"count":480,"max":[319],"min":[0],"type":"SCALAR"},{"bufferView":4,"componentType":5126,"count":912,"max":[0.3031249940395355,0.5687500238418579,0.203125],"min":[-0.3031249940395355,-0.625,-0.1875],"type":"VEC3"},{"bufferView":5,"componentType":5126,"count":912,"max":[0.9950371980667114,1,1],"min":[-0.9950371980667114,-1,-1],"type":"VEC3"},{"bufferView":6,"componentType":5126,"count":912,"max":[0.75,0.75],"min":[0,0],"type":"VEC2"},{"bufferView":7,"componentType":5123,"count":1368,"max":[911],"min":[0],"type":"SCALAR"},{"bufferView":8,"componentType":5126,"count":96,"max":[0.09375,0.13750000298023224,0.08124999701976776],"min":[-0.09375,-0.012500000186264515,-0.08124999701976776],"type":"VEC3"},{"bufferView":9,"componentType":5126,"count":96,"max":[0.991633951663971,1,0.9805796146392822],"min":[-0.991633951663971,-1,-0.9805796146392822],"type":"VEC3"},{"bufferView":10,"componentType":5126,"count":96,"max":[0.0625,0.125],"min":[0,0],"type":"VEC2"},{"bufferView":11,"componentType":5123,"count":144,"max":[95],"min":[0],"type":"SCALAR"},{"bufferView":12,"componentType":5126,"count":1294,"max":[0.1404639482498169,0.33011895418167114,0.18694232404232025],"min":[-0.14048655331134796,-0.001131033874116838,-0.20627407729625702],"type":"VEC3"},{"bufferView":13,"componentType":5126,"count":1294,"max":[1,0.9938837289810181,0.9999942183494568],"min":[-1,-1,-1],"type":"VEC3"},{"bufferView":14,"componentType":5126,"count":1294,"max":[0.28125,0.28125],"min":[0,0],"type":"VEC2"},{"bufferView":15,"componentType":5123,"count":1896,"max":[1293],"min":[0],"type":"SCALAR"},{"bufferView":16,"componentType":5126,"count":224,"max":[0.21875,0.44999998807907104,0.07500000298023224],"min":[-0.20624999701976776,0.30000001192092896,-0.07500000298023224],"type":"VEC3"},{"bufferView":17,"componentType":5126,"count":224,"max":[0.9742568135261536,0.974126398563385,0.974126398563385],"min":[-0.9575667381286621,-0.974126398563385,-0.974126398563385],"type":"VEC3"},{"bufferView":18,"componentType":5126,"count":224,"max":[0.526562511920929,0.776562511920929],"min":[0,0],"type":"VEC2"},{"bufferView":19,"componentType":5123,"count":336,"max":[223],"min":[0],"type":"SCALAR"},{"bufferView":20,"componentType":5126,"count":224,"max":[0.23125000298023224,0.45625001192092896,0.08124999701976776],"min":[-0.20624999701976776,0.29374998807907104,-0.08124999701976776],"type":"VEC3"},{"bufferView":21,"componentType":5126,"count":224,"max":[0.9476489424705505,0.974126398563385,0.9761870503425598],"min":[-1,-0.974126398563385,-0.974126398563385],"type":"VEC3"},{"bufferView":22,"componentType":5126,"count":224,"max":[0.515625,0.765625],"min":[0,0],"type":"VEC2"},{"bufferView":23,"componentType":5123,"count":336,"max":[223],"min":[0],"type":"SCALAR"},{"bufferView":24,"componentType":5126,"count":240,"max":[0.16249999403953552,0.4124999940395355,0.0625],"min":[-0.13750000298023224,0.34375,-0.15319004654884338],"type":"VEC3"},{"bufferView":25,"componentType":5126,"count":240,"max":[1,1,1],"min":[-0.9805806875228882,-1,-1],"type":"VEC3"},{"bufferView":26,"componentType":5126,"count":240,"max":[0.515625,0.758593738079071],"min":[0,0],"type":"VEC2"},{"bufferView":27,"componentType":5123,"count":360,"max":[239],"min":[0],"type":"SCALAR"},{"bufferView":28,"componentType":5126,"count":224,"max":[0.20624999701976776,0.44999998807907104,0.07500000298023224],"min":[-0.21875,0.30000001192092896,-0.07500000298023224],"type":"VEC3"},{"bufferView":29,"componentType":5126,"count":224,"max":[0.9575667381286621,0.974126398563385,0.974126398563385],"min":[-0.9742568135261536,-0.974126398563385,-0.974126398563385],"type":"VEC3"},{"bufferView":30,"componentType":5126,"count":224,"max":[0.526562511920929,0.776562511920929],"min":[0,0],"type":"VEC2"},{"bufferView":31,"componentType":5123,"count":336,"max":[223],"min":[0],"type":"SCALAR"},{"bufferView":32,"componentType":5126,"count":224,"max":[0.20624999701976776,0.45625001192092896,0.08124999701976776],"min":[-0.23125000298023224,0.29374998807907104,-0.08124999701976776],"type":"VEC3"},{"bufferView":33,"componentType":5126,"count":224,"max":[1,0.974126398563385,0.9761870503425598],"min":[-0.9476489424705505,-0.974126398563385,-0.974126398563385],"type":"VEC3"},{"bufferView":34,"componentType":5126,"count":224,"max":[0.515625,0.765625],"min":[0,0],"type":"VEC2"},{"bufferView":35,"componentType":5123,"count":336,"max":[223],"min":[0],"type":"SCALAR"},{"bufferView":36,"componentType":5126,"count":240,"max":[0.13750000298023224,0.4124999940395355,0.0625],"min":[-0.16249999403953552,0.34375,-0.15319004654884338],"type":"VEC3"},{"bufferView":37,"componentType":5126,"count":240,"max":[0.9805806875228882,1,1],"min":[-1,-1,-1],"type":"VEC3"},{"bufferView":38,"componentType":5126,"count":240,"max":[0.515625,0.758593738079071],"min":[0,0],"type":"VEC2"},{"bufferView":39,"componentType":5123,"count":360,"max":[239],"min":[0],"type":"SCALAR"},{"bufferView":40,"componentType":5126,"count":288,"max":[0.08749999850988388,0.625,0.07500000298023224],"min":[-0.08749999850988388,0.13124999403953552,-0.07500000298023224],"type":"VEC3"},{"bufferView":41,"componentType":5126,"count":288,"max":[0.9738411903381348,0.9821122884750366,0.985622227191925],"min":[-0.9736565351486206,-0.9778032302856445,-0.982338547706604],"type":"VEC3"},{"bufferView":42,"componentType":5126,"count":288,"max":[0.515625,0.75],"min":[0,0],"type":"VEC2"},{"bufferView":43,"componentType":5123,"count":432,"max":[287],"min":[0],"type":"SCALAR"},{"bufferView":44,"componentType":5126,"count":288,"max":[0.08749999850988388,0.625,0.08124999701976776],"min":[-0.08749999850988388,0.13124999403953552,-0.08124999701976776],"type":"VEC3"},{"bufferView":45,"componentType":5126,"count":288,"max":[0.9710955023765564,0.9755406975746155,0.9786733388900757],"min":[-0.9679485559463501,-1,-0.9777896404266357],"type":"VEC3"},{"bufferView":46,"componentType":5126,"count":288,"max":[0.515625,0.75],"min":[0,0],"type":"VEC2"},{"bufferView":47,"componentType":5123,"count":432,"max":[287],"min":[0],"type":"SCALAR"},{"bufferView":48,"componentType":5126,"count":234,"max":[0.0625,0.39375001192092896,0.125],"min":[-0.0625,0.3125,-0.125],"type":"VEC3"},{"bufferView":49,"componentType":5126,"count":234,"max":[1,1,1],"min":[-1,-1,-1],"type":"VEC3"},{"bufferView":50,"componentType":5126,"count":234,"max":[0.5,0.75],"min":[0,0],"type":"VEC2"},{"bufferView":51,"componentType":5123,"count":348,"max":[233],"min":[0],"type":"SCALAR"},{"bufferView":52,"componentType":5126,"count":288,"max":[0.08749999850988388,0.625,0.07500000298023224],"min":[-0.08749999850988388,0.13124999403953552,-0.07500000298023224],"type":"VEC3"},{"bufferView":53,"componentType":5126,"count":288,"max":[0.9736565351486206,0.9821122884750366,0.985622227191925],"min":[-0.9738411903381348,-0.9778032302856445,-0.982338547706604],"type":"VEC3"},{"bufferView":54,"componentType":5126,"count":288,"max":[0.515625,0.75],"min":[0,0],"type":"VEC2"},{"bufferView":55,"componentType":5123,"count":432,"max":[287],"min":[0],"type":"SCALAR"},{"bufferView":56,"componentType":5126,"count":288,"max":[0.08749999850988388,0.625,0.08124999701976776],"min":[-0.08749999850988388,0.13124999403953552,-0.08124999701976776],"type":"VEC3"},{"bufferView":57,"componentType":5126,"count":288,"max":[0.9679485559463501,0.9755406975746155,0.9786733388900757],"min":[-0.9710955023765564,-1,-0.9777896404266357],"type":"VEC3"},{"bufferView":58,"componentType":5126,"count":288,"max":[0.515625,0.75],"min":[0,0],"type":"VEC2"},{"bufferView":59,"componentType":5123,"count":432,"max":[287],"min":[0],"type":"SCALAR"},{"bufferView":60,"componentType":5126,"count":234,"max":[0.0625,0.39375001192092896,0.125],"min":[-0.0625,0.3125,-0.125],"type":"VEC3"},{"bufferView":61,"componentType":5126,"count":234,"max":[1,1,1],"min":[-1,-1,-1],"type":"VEC3"},{"bufferView":62,"componentType":5126,"count":234,"max":[0.5,0.75],"min":[0,0],"type":"VEC2"},{"bufferView":63,"componentType":5123,"count":348,"max":[233],"min":[0],"type":"SCALAR"},{"bufferView":64,"componentType":5126,"count":1,"max":[0],"min":[0],"type":"SCALAR"},{"bufferView":65,"componentType":5126,"count":1,"max":[-0.000015950568922562525,1.3234889800848443e-23,-0.005576440133154392,0.9999844431877136],"min":[-0.000015950568922562525,1.3234889800848443e-23,-0.005576440133154392,0.9999844431877136],"type":"VEC4"},{"bufferView":66,"componentType":5126,"count":1,"max":[0],"min":[0],"type":"SCALAR"},{"bufferView":67,"componentType":5126,"count":1,"max":[-0.00026481697568669915,0.00003504930646158755,-0.028105782344937325,0.9996049404144287],"min":[-0.00026481697568669915,0.00003504930646158755,-0.028105782344937325,0.9996049404144287],"type":"VEC4"},{"bufferView":68,"componentType":5126,"count":1,"max":[0],"min":[0],"type":"SCALAR"},{"bufferView":69,"componentType":5126,"count":1,"max":[-0.000662370992358774,0.0036430403124541044,0.054428402334451675,0.9985108375549316],"min":[-0.000662370992358774,0.0036430403124541044,0.054428402334451675,0.9985108375549316],"type":"VEC4"},{"bufferView":70,"componentType":5126,"count":1,"max":[0],"min":[0],"type":"SCALAR"},{"bufferView":71,"componentType":5126,"count":1,"max":[1.0842021724855044e-19,0.00857741478830576,-0.038745470345020294,0.9992123246192932],"min":[1.0842021724855044e-19,0.00857741478830576,-0.038745470345020294,0.9992123246192932],"type":"VEC4"},{"bufferView":72,"componentType":5126,"count":1,"max":[0],"min":[0],"type":"SCALAR"},{"bufferView":73,"componentType":5126,"count":1,"max":[3.469446951953614e-18,0.1092090755701065,-0.17080335319042206,0.9792341589927673],"min":[3.469446951953614e-18,0.1092090755701065,-0.17080335319042206,0.9792341589927673],"type":"VEC4"},{"bufferView":74,"componentType":5126,"count":1,"max":[0],"min":[0],"type":"SCALAR"},{"bufferView":75,"componentType":5126,"count":1,"max":[0.25388526916503906,-0.12795817852020264,0.41569873690605164,0.8639233112335205],"min":[0.25388526916503906,-0.12795817852020264,0.41569873690605164,0.8639233112335205],"type":"VEC4"}],"materials":[{"pbrMetallicRoughness":{"metallicFactor":0,"roughnessFactor":1},"alphaMode":"MASK","alphaCutoff":0.05,"doubleSided":true},{"pbrMetallicRoughness":{"metallicFactor":0,"roughnessFactor":1},"alphaMode":"MASK","alphaCutoff":0.05,"doubleSided":true},{"pbrMetallicRoughness":{"metallicFactor":0,"roughnessFactor":1},"alphaMode":"MASK","alphaCutoff":0.05,"doubleSided":true}],"meshes":[{"primitives":[{"mode":4,"attributes":{"POSITION":0,"NORMAL":1,"TEXCOORD_0":2},"indices":3,"material":0}]},{"primitives":[{"mode":4,"attributes":{"POSITION":4,"NORMAL":5,"TEXCOORD_0":6},"indices":7,"material":0}]},{"primitives":[{"mode":4,"attributes":{"POSITION":8,"NORMAL":9,"TEXCOORD_0":10},"indices":11,"material":1}]},{"primitives":[{"mode":4,"attributes":{"POSITION":12,"NORMAL":13,"TEXCOORD_0":14},"indices":15,"material":2}]},{"primitives":[{"mode":4,"attributes":{"POSITION":16,"NORMAL":17,"TEXCOORD_0":18},"indices":19,"material":0}]},{"primitives":[{"mode":4,"attributes":{"POSITION":20,"NORMAL":21,"TEXCOORD_0":22},"indices":23,"material":0}]},{"primitives":[{"mode":4,"attributes":{"POSITION":24,"NORMAL":25,"TEXCOORD_0":26},"indices":27,"material":0}]},{"primitives":[{"mode":4,"attributes":{"POSITION":28,"NORMAL":29,"TEXCOORD_0":30},"indices":31,"material":0}]},{"primitives":[{"mode":4,"attributes":{"POSITION":32,"NORMAL":33,"TEXCOORD_0":34},"indices":35,"material":0}]},{"primitives":[{"mode":4,"attributes":{"POSITION":36,"NORMAL":37,"TEXCOORD_0":38},"indices":39,"material":0}]},{"primitives":[{"mode":4,"attributes":{"POSITION":40,"NORMAL":41,"TEXCOORD_0":42},"indices":43,"material":0}]},{"primitives":[{"mode":4,"attributes":{"POSITION":44,"NORMAL":45,"TEXCOORD_0":46},"indices":47,"material":0}]},{"primitives":[{"mode":4,"attributes":{"POSITION":48,"NORMAL":49,"TEXCOORD_0":50},"indices":51,"material":0}]},{"primitives":[{"mode":4,"attributes":{"POSITION":52,"NORMAL":53,"TEXCOORD_0":54},"indices":55,"material":0}]},{"primitives":[{"mode":4,"attributes":{"POSITION":56,"NORMAL":57,"TEXCOORD_0":58},"indices":59,"material":0}]},{"primitives":[{"mode":4,"attributes":{"POSITION":60,"NORMAL":61,"TEXCOORD_0":62},"indices":63,"material":0}]}],"animations":[{"name":"animation","samplers":[{"input":64,"output":65,"interpolation":"LINEAR"},{"input":66,"output":67,"interpolation":"LINEAR"},{"input":68,"output":69,"interpolation":"LINEAR"},{"input":70,"output":71,"interpolation":"LINEAR"},{"input":72,"output":73,"interpolation":"LINEAR"},{"input":74,"output":75,"interpolation":"LINEAR"}],"channels":[{"sampler":0,"target":{"node":36,"path":"rotation"}},{"sampler":1,"target":{"node":23,"path":"rotation"}},{"sampler":2,"target":{"node":22,"path":"rotation"}},{"sampler":3,"target":{"node":21,"path":"rotation"}},{"sampler":4,"target":{"node":20,"path":"rotation"}},{"sampler":5,"target":{"node":19,"path":"rotation"}}]}]}