{"asset":{"version":"2.0","generator":"Blockbench 4.12.1 glTF exporter"},"scenes":[{"nodes":[16],"name":"blockbench_export"}],"scene":0,"nodes":[{"rotation":[-6.123233995736771e-17,-1,-6.123233995736771e-17,-8.795048023202413e-16],"translation":[0,0.9255655169554224,-0.015438679301146785],"name":"hips","mesh":0},{"rotation":[-6.123233995736771e-17,-1,-6.123233995736771e-17,-8.795048023202413e-16],"translation":[0,0.9255655169554224,-0.015438679301146785],"name":"right_upper_leg","mesh":1},{"rotation":[-6.123233995736771e-17,-1,-6.123233995736771e-17,-8.795048023202413e-16],"translation":[0,0.9255655169554224,-0.015438679301146785],"name":"right_lower_leg","mesh":2},{"rotation":[-6.123233995736771e-17,-1,-6.123233995736771e-17,-8.795048023202413e-16],"translation":[0,0.9255655169554224,-0.015438679301146785],"name":"right_foot","mesh":3},{"rotation":[-6.123233995736771e-17,-1,-6.123233995736771e-17,-8.795048023202413e-16],"translation":[0,0.9255655169554224,-0.015438679301146785],"name":"left_upper_leg","mesh":4},{"rotation":[-6.123233995736771e-17,-1,-6.123233995736771e-17,-8.795048023202413e-16],"translation":[0,0.9255655169554224,-0.015438679301146785],"name":"left_lower_leg","mesh":5},{"rotation":[-6.123233995736771e-17,-1,-6.123233995736771e-17,-8.795048023202413e-16],"translation":[0,0.9255655169554224,-0.015438679301146785],"name":"left_foot","mesh":6},{"rotation":[-6.123233995736771e-17,-1,-6.123233995736771e-17,-8.795048023202413e-16],"translation":[0,0.9255655169554224,-0.015438679301146785],"name":"chest","mesh":7},{"rotation":[-6.123233995736771e-17,-1,-6.123233995736771e-17,-8.795048023202413e-16],"translation":[0,0.9255655169554224,-0.015438679301146785],"name":"right_upper_arm","mesh":8},{"rotation":[-6.123233995736771e-17,-1,-6.123233995736771e-17,-8.795048023202413e-16],"translation":[0,0.9255655169554224,-0.015438679301146785],"name":"right_lower_arm","mesh":9},{"rotation":[-6.123233995736771e-17,-1,-6.123233995736771e-17,-8.795048023202413e-16],"translation":[0,0.9255655169554224,-0.015438679301146785],"name":"right_hand","mesh":10},{"rotation":[-6.123233995736771e-17,-1,-6.123233995736771e-17,-8.795048023202413e-16],"translation":[0,0.9255655169554224,-0.015438679301146785],"name":"left_upper_arm","mesh":11},{"rotation":[-6.123233995736771e-17,-1,-6.123233995736771e-17,-8.795048023202413e-16],"translation":[0,0.9255655169554224,-0.015438679301146785],"name":"left_lower_arm","mesh":12},{"rotation":[-6.123233995736771e-17,-1,-6.123233995736771e-17,-8.795048023202413e-16],"translation":[0,0.9255655169554224,-0.015438679301146785],"name":"left_hand","mesh":13},{"rotation":[-6.123233995736771e-17,-1,-6.123233995736771e-17,-8.795048023202413e-16],"translation":[0,0.9255655169554224,-0.015438679301146785],"name":"neck","mesh":14},{"rotation":[-6.123233995736771e-17,-1,-6.123233995736771e-17,-8.795048023202413e-16],"translation":[0,0.9255655169554224,-0.015438679301146785],"name":"head","mesh":15},{"children":[0,1,2,3,4,5,6,7,8,9,10,11,12,13,14,15]}],"bufferViews":[{"buffer":0,"byteOffset":0,"byteLength":3840,"target":34962,"byteStride":12},{"buffer":0,"byteOffset":3840,"byteLength":3840,"target":34962,"byteStride":12},{"buffer":0,"byteOffset":7680,"byteLength":2560,"target":34962,"byteStride":8},{"buffer":0,"byteOffset":10240,"byteLength":960,"target":34963},{"buffer":0,"byteOffset":11200,"byteLength":3456,"target":34962,"byteStride":12},{"buffer":0,"byteOffset":14656,"byteLength":3456,"target":34962,"byteStride":12},{"buffer":0,"byteOffset":18112,"byteLength":2304,"target":34962,"byteStride":8},{"buffer":0,"byteOffset":20416,"byteLength":864,"target":34963},{"buffer":0,"byteOffset":21280,"byteLength":3456,"target":34962,"byteStride":12},{"buffer":0,"byteOffset":24736,"byteLength":3456,"target":34962,"byteStride":12},{"buffer":0,"byteOffset":28192,"byteLength":2304,"target":34962,"byteStride":8},{"buffer":0,"byteOffset":30496,"byteLength":864,"target":34963},{"buffer":0,"byteOffset":31360,"byteLength":2808,"target":34962,"byteStride":12},{"buffer":0,"byteOffset":34168,"byteLength":2808,"target":34962,"byteStride":12},{"buffer":0,"byteOffset":36976,"byteLength":1872,"target":34962,"byteStride":8},{"buffer":0,"byteOffset":38848,"byteLength":696,"target":34963},{"buffer":0,"byteOffset":39544,"byteLength":3456,"target":34962,"byteStride":12},{"buffer":0,"byteOffset":43000,"byteLength":3456,"target":34962,"byteStride":12},{"buffer":0,"byteOffset":46456,"byteLength":2304,"target":34962,"byteStride":8},{"buffer":0,"byteOffset":48760,"byteLength":864,"target":34963},{"buffer":0,"byteOffset":49624,"byteLength":3456,"target":34962,"byteStride":12},{"buffer":0,"byteOffset":53080,"byteLength":3456,"target":34962,"byteStride":12},{"buffer":0,"byteOffset":56536,"byteLength":2304,"target":34962,"byteStride":8},{"buffer":0,"byteOffset":58840,"byteLength":864,"target":34963},{"buffer":0,"byteOffset":59704,"byteLength":2808,"target":34962,"byteStride":12},{"buffer":0,"byteOffset":62512,"byteLength":2808,"target":34962,"byteStride":12},{"buffer":0,"byteOffset":65320,"byteLength":1872,"target":34962,"byteStride":8},{"buffer":0,"byteOffset":67192,"byteLength":696,"target":34963},{"buffer":0,"byteOffset":67888,"byteLength":10944,"target":34962,"byteStride":12},{"buffer":0,"byteOffset":78832,"byteLength":10944,"target":34962,"byteStride":12},{"buffer":0,"byteOffset":89776,"byteLength":7296,"target":34962,"byteStride":8},{"buffer":0,"byteOffset":97072,"byteLength":2736,"target":34963},{"buffer":0,"byteOffset":99808,"byteLength":2688,"target":34962,"byteStride":12},{"buffer":0,"byteOffset":102496,"byteLength":2688,"target":34962,"byteStride":12},{"buffer":0,"byteOffset":105184,"byteLength":1792,"target":34962,"byteStride":8},{"buffer":0,"byteOffset":106976,"byteLength":672,"target":34963},{"buffer":0,"byteOffset":107648,"byteLength":2688,"target":34962,"byteStride":12},{"buffer":0,"byteOffset":110336,"byteLength":2688,"target":34962,"byteStride":12},{"buffer":0,"byteOffset":113024,"byteLength":1792,"target":34962,"byteStride":8},{"buffer":0,"byteOffset":114816,"byteLength":672,"target":34963},{"buffer":0,"byteOffset":115488,"byteLength":2880,"target":34962,"byteStride":12},{"buffer":0,"byteOffset":118368,"byteLength":2880,"target":34962,"byteStride":12},{"buffer":0,"byteOffset":121248,"byteLength":1920,"target":34962,"byteStride":8},{"buffer":0,"byteOffset":123168,"byteLength":720,"target":34963},{"buffer":0,"byteOffset":123888,"byteLength":2688,"target":34962,"byteStride":12},{"buffer":0,"byteOffset":126576,"byteLength":2688,"target":34962,"byteStride":12},{"buffer":0,"byteOffset":129264,"byteLength":1792,"target":34962,"byteStride":8},{"buffer":0,"byteOffset":131056,"byteLength":672,"target":34963},{"buffer":0,"byteOffset":131728,"byteLength":2688,"target":34962,"byteStride":12},{"buffer":0,"byteOffset":134416,"byteLength":2688,"target":34962,"byteStride":12},{"buffer":0,"byteOffset":137104,"byteLength":1792,"target":34962,"byteStride":8},{"buffer":0,"byteOffset":138896,"byteLength":672,"target":34963},{"buffer":0,"byteOffset":139568,"byteLength":2880,"target":34962,"byteStride":12},{"buffer":0,"byteOffset":142448,"byteLength":2880,"target":34962,"byteStride":12},{"buffer":0,"byteOffset":145328,"byteLength":1920,"target":34962,"byteStride":8},{"buffer":0,"byteOffset":147248,"byteLength":720,"target":34963},{"buffer":0,"byteOffset":147968,"byteLength":1152,"target":34962,"byteStride":12},{"buffer":0,"byteOffset":149120,"byteLength":1152,"target":34962,"byteStride":12},{"buffer":0,"byteOffset":150272,"byteLength":768,"target":34962,"byteStride":8},{"buffer":0,"byteOffset":151040,"byteLength":288,"target":34963},{"buffer":0,"byteOffset":151328,"byteLength":15528,"target":34962,"byteStride":12},{"buffer":0,"byteOffset":166856,"byteLength":15528,"target":34962,"byteStride":12},{"buffer":0,"byteOffset":182384,"byteLength":10352,"target":34962,"byteStride":8},{"buffer":0,"byteOffset":192736,"byteLength":3792,"target":34963}],"buffers":[{"byteLength":196528,"uri":"data:application/octet-stream;base64,"}],"accessors":[{"bufferView":0,"componentType":5126,"count":320,"max":[0.18125000596046448,0.19943448901176453,0.09668868035078049],"min":[-0.18125000596046448,-0.03806551545858383,-0.09081131964921951],"type":"VEC3"},{"bufferView":1,"componentType":5126,"count":320,"max":[0.9652860164642334,1,0.9994687438011169],"min":[-0.9652860164642334,-0.9288948774337769,-0.9888554215431213],"type":"VEC3"},{"bufferView":2,"componentType":5126,"count":320,"max":[0.5134591460227966,0.4765625],"min":[0,0],"type":"VEC2"},{"bufferView":3,"componentType":5123,"count":480,"max":[319],"min":[0],"type":"SCALAR"},{"bufferView":4,"componentType":5126,"count":288,"max":[0.19374999403953552,0.07443448156118393,0.09043867886066437],"min":[0.01875000074505806,-0.41931551694869995,-0.05956131964921951],"type":"VEC3"},{"bufferView":5,"componentType":5126,"count":288,"max":[0.9736565351486206,0.9821122884750366,0.985622227191925],"min":[-0.9738411903381348,-0.9778032302856445,-0.982338547706604],"type":"VEC3"},{"bufferView":6,"componentType":5126,"count":288,"max":[0.40625,0.5011510848999023],"min":[0,0],"type":"VEC2"},{"bufferView":7,"componentType":5123,"count":432,"max":[287],"min":[0],"type":"SCALAR"},{"bufferView":8,"componentType":5126,"count":288,"max":[0.19374999403953552,-0.3630655109882355,0.09668868035078049],"min":[0.01875000074505806,-0.8568155169487,-0.06581132113933563],"type":"VEC3"},{"bufferView":9,"componentType":5126,"count":288,"max":[0.9679485559463501,0.9755406975746155,0.9786733388900757],"min":[-0.9710955023765564,-1,-0.9777896404266357],"type":"VEC3"},{"bufferView":10,"componentType":5126,"count":288,"max":[0.5452192425727844,0.5131687521934509],"min":[0.00017499999376013875,0],"type":"VEC2"},{"bufferView":11,"componentType":5123,"count":432,"max":[287],"min":[0],"type":"SCALAR"},{"bufferView":12,"componentType":5126,"count":234,"max":[0.16875000298023224,-0.8443155288696289,0.07793867588043213],"min":[0.04374999925494194,-0.9255655407905579,-0.17206132411956787],"type":"VEC3"},{"bufferView":13,"componentType":5126,"count":234,"max":[1,1,1],"min":[-1,-1,-1],"type":"VEC3"},{"bufferView":14,"componentType":5126,"count":234,"max":[0.625,0.5883437395095825],"min":[0,0],"type":"VEC2"},{"bufferView":15,"componentType":5123,"count":348,"max":[233],"min":[0],"type":"SCALAR"},{"bufferView":16,"componentType":5126,"count":288,"max":[-0.01875000074505806,0.07443448156118393,0.09043867886066437],"min":[-0.19374999403953552,-0.41931551694869995,-0.05956131964921951],"type":"VEC3"},{"bufferView":17,"componentType":5126,"count":288,"max":[0.9738411903381348,0.9821122884750366,0.985622227191925],"min":[-0.9736565351486206,-0.9778032302856445,-0.982338547706604],"type":"VEC3"},{"bufferView":18,"componentType":5126,"count":288,"max":[0.40625,0.5011510848999023],"min":[0,0],"type":"VEC2"},{"bufferView":19,"componentType":5123,"count":432,"max":[287],"min":[0],"type":"SCALAR"},{"bufferView":20,"componentType":5126,"count":288,"max":[-0.01875000074505806,-0.3630655109882355,0.09668868035078049],"min":[-0.19374999403953552,-0.8568155169487,-0.06581132113933563],"type":"VEC3"},{"bufferView":21,"componentType":5126,"count":288,"max":[0.9710955023765564,0.9755406975746155,0.9786733388900757],"min":[-0.9679485559463501,-1,-0.9777896404266357],"type":"VEC3"},{"bufferView":22,"componentType":5126,"count":288,"max":[0.5452192425727844,0.5131687521934509],"min":[0.00017499999376013875,0],"type":"VEC2"},{"bufferView":23,"componentType":5123,"count":432,"max":[287],"min":[0],"type":"SCALAR"},{"bufferView":24,"componentType":5126,"count":234,"max":[-0.04374999925494194,-0.8443155288696289,0.07793867588043213],"min":[-0.16875000298023224,-0.9255655407905579,-0.17206132411956787],"type":"VEC3"},{"bufferView":25,"componentType":5126,"count":234,"max":[1,1,1],"min":[-1,-1,-1],"type":"VEC3"},{"bufferView":26,"componentType":5126,"count":234,"max":[0.625,0.5883437395095825],"min":[0,0],"type":"VEC2"},{"bufferView":27,"componentType":5123,"count":348,"max":[233],"min":[0],"type":"SCALAR"},{"bufferView":28,"componentType":5126,"count":912,"max":[0.3031249940395355,0.7681844830513,0.21856367588043213],"min":[-0.3031249940395355,-0.4255655109882355,-0.17206132411956787],"type":"VEC3"},{"bufferView":29,"componentType":5126,"count":912,"max":[0.9950371980667114,1,1],"min":[-0.9950371980667114,-1,-1],"type":"VEC3"},{"bufferView":30,"componentType":5126,"count":912,"max":[0.5619993805885315,0.5945155024528503],"min":[0.0012891165679320693,0],"type":"VEC2"},{"bufferView":31,"componentType":5123,"count":1368,"max":[911],"min":[0],"type":"SCALAR"},{"bufferView":32,"componentType":5126,"count":224,"max":[0.518750011920929,0.711934506893158,0.09043867886066437],"min":[0.09375,0.5619344711303711,-0.05956131964921951],"type":"VEC3"},{"bufferView":33,"componentType":5126,"count":224,"max":[0.9575667381286621,0.974126398563385,0.974126398563385],"min":[-0.9742568135261536,-0.974126398563385,-0.974126398563385],"type":"VEC3"},{"bufferView":34,"componentType":5126,"count":224,"max":[0.8842127323150635,0.8135552406311035],"min":[0.006408494431525469,0.013326823711395264],"type":"VEC2"},{"bufferView":35,"componentType":5123,"count":336,"max":[223],"min":[0],"type":"SCALAR"},{"bufferView":36,"componentType":5126,"count":224,"max":[0.831250011920929,0.7181844711303711,0.09668868035078049],"min":[0.39375001192092896,0.555684506893158,-0.06581132113933563],"type":"VEC3"},{"bufferView":37,"componentType":5126,"count":224,"max":[1,0.974126398563385,0.9761870503425598],"min":[-0.9476489424705505,-0.974126398563385,-0.974126398563385],"type":"VEC3"},{"bufferView":38,"componentType":5126,"count":224,"max":[0.890625,0.8694999814033508],"min":[0,0.004243433475494385],"type":"VEC2"},{"bufferView":39,"componentType":5123,"count":336,"max":[223],"min":[0],"type":"SCALAR"},{"bufferView":40,"componentType":5126,"count":240,"max":[1.0750000476837158,0.6744344830513,0.07793867588043213],"min":[0.7749999761581421,0.6056844592094421,-0.13775137066841125],"type":"VEC3"},{"bufferView":41,"componentType":5126,"count":240,"max":[0.9805806875228882,1,1],"min":[-1,-1,-1],"type":"VEC3"},{"bufferView":42,"componentType":5126,"count":240,"max":[0.6875,0.668749988079071],"min":[0,0],"type":"VEC2"},{"bufferView":43,"componentType":5123,"count":360,"max":[239],"min":[0],"type":"SCALAR"},{"bufferView":44,"componentType":5126,"count":224,"max":[-0.09375,0.711934506893158,0.09043867886066437],"min":[-0.518750011920929,0.5619344711303711,-0.05956131964921951],"type":"VEC3"},{"bufferView":45,"componentType":5126,"count":224,"max":[0.9742568135261536,0.974126398563385,0.974126398563385],"min":[-0.9575667381286621,-0.974126398563385,-0.974126398563385],"type":"VEC3"},{"bufferView":46,"componentType":5126,"count":224,"max":[0.8842127323150635,0.8135552406311035],"min":[0.006408494431525469,0.013326823711395264],"type":"VEC2"},{"bufferView":47,"componentType":5123,"count":336,"max":[223],"min":[0],"type":"SCALAR"},{"bufferView":48,"componentType":5126,"count":224,"max":[-0.39375001192092896,0.7181844711303711,0.09668868035078049],"min":[-0.831250011920929,0.555684506893158,-0.06581132113933563],"type":"VEC3"},{"bufferView":49,"componentType":5126,"count":224,"max":[0.9476489424705505,0.974126398563385,0.9761870503425598],"min":[-1,-0.974126398563385,-0.974126398563385],"type":"VEC3"},{"bufferView":50,"componentType":5126,"count":224,"max":[0.890625,0.8694999814033508],"min":[0,0.004243433475494385],"type":"VEC2"},{"bufferView":51,"componentType":5123,"count":336,"max":[223],"min":[0],"type":"SCALAR"},{"bufferView":52,"componentType":5126,"count":240,"max":[-0.7749999761581421,0.6744344830513,0.07793867588043213],"min":[-1.0750000476837158,0.6056844592094421,-0.13775137066841125],"type":"VEC3"},{"bufferView":53,"componentType":5126,"count":240,"max":[1,1,1],"min":[-0.9805806875228882,-1,-1],"type":"VEC3"},{"bufferView":54,"componentType":5126,"count":240,"max":[0.6875,0.668749988079071],"min":[0,0],"type":"VEC2"},{"bufferView":55,"componentType":5123,"count":360,"max":[239],"min":[0],"type":"SCALAR"},{"bufferView":56,"componentType":5126,"count":96,"max":[0.09375,0.774434506893158,0.09668868035078049],"min":[-0.09375,0.6244344711303711,-0.06581132113933563],"type":"VEC3"},{"bufferView":57,"componentType":5126,"count":96,"max":[0.991633951663971,1,0.9805796146392822],"min":[-0.991633951663971,-1,-0.9805796146392822],"type":"VEC3"},{"bufferView":58,"componentType":5126,"count":96,"max":[0.59375,0.6509062647819519],"min":[0,0],"type":"VEC2"},{"bufferView":59,"componentType":5123,"count":144,"max":[95],"min":[0],"type":"SCALAR"},{"bufferView":60,"componentType":5126,"count":1294,"max":[0.14032550156116486,1.061934471130371,0.2123136818408966],"min":[-0.140625,0.7306844592094421,-0.18090271949768066],"type":"VEC3"},{"bufferView":61,"componentType":5126,"count":1294,"max":[1,0.9938837289810181,0.9999942183494568],"min":[-1,-1,-1],"type":"VEC3"},{"bufferView":62,"componentType":5126,"count":1294,"max":[0.977711021900177,0.9641066789627075],"min":[0,0],"type":"VEC2"},{"bufferView":63,"componentType":5123,"count":1896,"max":[1293],"min":[0],"type":"SCALAR"}],"materials":[{"pbrMetallicRoughness":{"metallicFactor":0,"roughnessFactor":1,"baseColorTexture":{"index":0}},"alphaMode":"MASK","alphaCutoff":0.05,"doubleSided":true},{"pbrMetallicRoughness":{"metallicFactor":0,"roughnessFactor":1,"baseColorTexture":{"index":1}},"alphaMode":"MASK","alphaCutoff":0.05,"doubleSided":true},{"pbrMetallicRoughness":{"metallicFactor":0,"roughnessFactor":1,"baseColorTexture":{"index":2}},"alphaMode":"MASK","alphaCutoff":0.05,"doubleSided":true},{"pbrMetallicRoughness":{"metallicFactor":0,"roughnessFactor":1,"baseColorTexture":{"index":3}},"alphaMode":"MASK","alphaCutoff":0.05,"doubleSided":true},{"pbrMetallicRoughness":{"metallicFactor":0,"roughnessFactor":1,"baseColorTexture":{"index":4}},"alphaMode":"MASK","alphaCutoff":0.05,"doubleSided":true},{"pbrMetallicRoughness":{"metallicFactor":0,"roughnessFactor":1,"baseColorTexture":{"index":5}},"alphaMode":"MASK","alphaCutoff":0.05,"doubleSided":true},{"pbrMetallicRoughness":{"metallicFactor":0,"roughnessFactor":1,"baseColorTexture":{"index":6}},"alphaMode":"MASK","alphaCutoff":0.05,"doubleSided":true},{"pbrMetallicRoughness":{"metallicFactor":0,"roughnessFactor":1,"baseColorTexture":{"index":7}},"alphaMode":"MASK","alphaCutoff":0.05,"doubleSided":true},{"pbrMetallicRoughness":{"metallicFactor":0,"roughnessFactor":1,"baseColorTexture":{"index":8}},"alphaMode":"MASK","alphaCutoff":0.05,"doubleSided":true},{"pbrMetallicRoughness":{"metallicFactor":0,"roughnessFactor":1,"baseColorTexture":{"index":9}},"alphaMode":"MASK","alphaCutoff":0.05,"doubleSided":true}],"textures":[{"sampler":0,"source":0,"name":"outlaw_hip_t.png"},{"sampler":1,"source":1,"name":"outlaw_upper_leg_t.png"},{"sampler":2,"source":2,"name":"outlaw_lower_leg_t.png"},{"sampler":3,"source":3,"name":"outlaw_foot_t.png"},{"sampler":4,"source":4,"name":"outlaw_chest_t.png"},{"sampler":5,"source":5,"name":"outlaw_upper_arm_t.png"},{"sampler":6,"source":6,"name":"outlaw_lower_arm_t.png"},{"sampler":7,"source":7,"name":"outlaw_hand_t.png"},{"sampler":8,"source":8,"name":"outlaw_neck_t.png"},{"sampler":9,"source":9,"name":"outlaw_head_t.png"}],"samplers":[{"magFilter":9728,"minFilter":9728,"wrapS":33071,"wrapT":33071},{"magFilter":9728,"minFilter":9728,"wrapS":33071,"wrapT":33071},{"magFilter":9728,"minFilter":9728,"wrapS":33071,"wrapT":33071},{"magFilter":9728,"minFilter":9728,"wrapS":33071,"wrapT":33071},{"magFilter":9728,"minFilter":9728,"wrapS":33071,"wrapT":33071},{"magFilter":9728,"minFilter":9728,"wrapS":33071,"wrapT":33071},{"magFilter":9728,"minFilter":9728,"wrapS":33071,"wrapT":33071},{"magFilter":9728,"minFilter":9728,"wrapS":33071,"wrapT":33071},{"magFilter":9728,"minFilter":9728,"wrapS":33071,"wrapT":33071},{"magFilter":9728,"minFilter":9728,"wrapS":33071,"wrapT":33071}],"images":[{"mimeType":"image/png","uri":"data:image/png;base64,"},{"mimeType":"image/png","uri":"data:image/png;base64,"},{"mimeType":"image/png","uri":"data:image/png;base64,"},{"mimeType":"image/png","uri":"data:image/png;base64,"},{"mimeType":"image/png","uri":"data:image/png;base64,"},{"mimeType":"image/png","uri":"data:image/png;base64,"},{"mimeType":"image/png","uri":"data:image/png;base64,"},{"mimeType":"image/png","uri":"data:image/png;base64,"},{"mimeType":"image/png","uri":"data:image/png;base64,"},{"mimeType":"image/png","uri":"data:image/png;base64,"}],"meshes":[{"primitives":[{"mode":4,"attributes":{"POSITION":0,"NORMAL":1,"TEXCOORD_0":2},"indices":3,"material":0}]},{"primitives":[{"mode":4,"attributes":{"POSITION":4,"NORMAL":5,"TEXCOORD_0":6},"indices":7,"material":1}]},{"primitives":[{"mode":4,"attributes":{"POSITION":8,"NORMAL":9,"TEXCOORD_0":10},"indices":11,"material":2}]},{"primitives":[{"mode":4,"attributes":{"POSITION":12,"NORMAL":13,"TEXCOORD_0":14},"indices":15,"material":3}]},{"primitives":[{"mode":4,"attributes":{"POSITION":16,"NORMAL":17,"TEXCOORD_0":18},"indices":19,"material":1}]},{"primitives":[{"mode":4,"attributes":{"POSITION":20,"NORMAL":21,"TEXCOORD_0":22},"indices":23,"material":2}]},{"primitives":[{"mode":4,"attributes":{"POSITION":24,"NORMAL":25,"TEXCOORD_0":26},"indices":27,"material":3}]},{"primitives":[{"mode":4,"attributes":{"POSITION":28,"NORMAL":29,"TEXCOORD_0":30},"indices":31,"material":4}]},{"primitives":[{"mode":4,"attributes":{"POSITION":32,"NORMAL":33,"TEXCOORD_0":34},"indices":35,"material":5}]},{"primitives":[{"mode":4,"attributes":{"POSITION":36,"NORMAL":37,"TEXCOORD_0":38},"indices":39,"material":6}]},{"primitives":[{"mode":4,"attributes":{"POSITION":40,"NORMAL":41,"TEXCOORD_0":42},"indices":43,"material":7}]},{"primitives":[{"mode":4,"attributes":{"POSITION":44,"NORMAL":45,"TEXCOORD_0":46},"indices":47,"material":5}]},{"primitives":[{"mode":4,"attributes":{"POSITION":48,"NORMAL":49,"TEXCOORD_0":50},"indices":51,"material":6}]},{"primitives":[{"mode":4,"attributes":{"POSITION":52,"NORMAL":53,"TEXCOORD_0":54},"indices":55,"material":7}]},{"primitives":[{"mode":4,"attributes":{"POSITION":56,"NORMAL":57,"TEXCOORD_0":58},"indices":59,"material":8}]},{"primitives":[{"mode":4,"attributes":{"POSITION":60,"NORMAL":61,"TEXCOORD_0":62},"indices":63,"material":9}]}]}